<svg width="18" height="18" viewBox="0 0 16 16" fill="none" xmlns="http://www.w3.org/2000/svg">
<circle cx="7.80522" cy="7.80522" r="7.80522" fill="#FFCC7E" fill-opacity="0.32"/>
<path d="M3.38571 7.99666C3.33984 7.9508 3.33984 7.87644 3.38571 7.83058L7.61353 3.60275C7.63556 3.58072 7.66543 3.56835 7.69658 3.56835C7.72772 3.56835 7.75759 3.58072 7.77962 3.60275L12.0074 7.83058C12.0295 7.8526 12.0418 7.88247 12.0418 7.91362C12.0418 7.94476 12.0295 7.97464 12.0074 7.99666L7.77962 12.2245C7.73375 12.2703 7.6594 12.2703 7.61353 12.2245L3.38571 7.99666Z" fill="#FFB547" stroke="#604104" stroke-width="0.234879" stroke-linejoin="round"/>
<circle cx="8.87135" cy="8.97071" r="0.11744" fill="#E6A13B"/>
<circle cx="8.87135" cy="9.44068" r="0.11744" fill="#E6A13B"/>
<circle cx="8.40162" cy="9.91016" r="0.11744" fill="#E6A13B"/>
<circle cx="8.04908" cy="10.3799" r="0.11744" fill="#E6A13B"/>
<circle cx="8.28345" cy="8.61842" r="0.11744" fill="#E6A13B"/>
<circle cx="9.45826" cy="8.26612" r="0.11744" fill="#E6A13B"/>
<circle cx="8.8119" cy="8.32484" r="0.176159" fill="#E6A13B"/>
<circle cx="8.34218" cy="9.38148" r="0.176159" fill="#E6A13B"/>
<path d="M3.46875 7.91362L7.69658 3.68579L11.9244 7.91362L3.46875 7.91362Z" fill="#FFC368"/>
<path d="M7.63817 4.27295L6.05273 7.6787" stroke="#FFD596" stroke-width="0.234879" stroke-linecap="round"/>
<path d="M5.58238 7.91362L7.69629 12.1414L3.46846 7.91362L7.69629 3.68579L5.58238 7.91362Z" fill="#FFCB7C"/>
<path d="M4.40798 7.91362L7.69629 12.1414L3.46846 7.91362L7.69629 3.68579L4.40798 7.91362Z" fill="#FFEEC1"/>
<path d="M5.58238 7.91362L7.69629 3.68579L3.46846 7.91362L5.58238 7.91362Z" fill="#FFDBA5"/>
<path d="M4.40798 7.91362L7.69629 3.68579L3.46846 7.91362L4.40798 7.91362Z" fill="#FFF1CB"/>
<path d="M9.8102 7.91362L7.69629 12.1414L11.9241 7.91362L7.69629 3.68579L9.8102 7.91362Z" fill="#CA693F"/>
<path d="M9.8102 7.91362L7.69629 3.68579L11.9241 7.91362L9.8102 7.91362Z" fill="#DC794F"/>
<path d="M10.9846 7.91362L7.69629 12.1414L11.9241 7.91362L7.69629 3.68579L10.9846 7.91362Z" fill="#E39130"/>
<path d="M10.9846 7.91362L7.69629 3.68579L11.9241 7.91362L10.9846 7.91362Z" fill="#F0A347"/>
<path d="M5.7008 5.91724L4.05664 7.67883" stroke="white" stroke-width="0.234879" stroke-linecap="round"/>
</svg>
