<svg width="22" height="22" viewBox="0 0 22 22" fill="none" xmlns="http://www.w3.org/2000/svg">
<path d="M7.92307 10.2308C10.4721 10.2308 12.5385 8.16439 12.5385 5.61538C12.5385 3.06638 10.4721 1 7.92307 1C5.37407 1 3.30769 3.06638 3.30769 5.61538C3.30769 8.16439 5.37407 10.2308 7.92307 10.2308Z" stroke="currentColor"  stroke-width="1.69231" stroke-miterlimit="10"/>
<path d="M1 17.1535C1 13.3297 4.09923 10.2305 7.92308 10.2305C9.35692 10.2305 10.6892 10.6666 11.7938 11.4128" stroke="currentColor"  stroke-width="1.69231" stroke-miterlimit="10"/>
<path d="M15.6154 20.9997C18.5892 20.9997 21 18.5889 21 15.6151C21 12.6412 18.5892 10.2305 15.6154 10.2305C12.6415 10.2305 10.2308 12.6412 10.2308 15.6151C10.2308 18.5889 12.6415 20.9997 15.6154 20.9997Z" stroke="currentColor"  stroke-width="1.69231" stroke-miterlimit="10"/>
<path d="M15.6154 18.6929V12.5391" stroke="currentColor"  stroke-width="1.69231" stroke-miterlimit="10"/>
<path d="M12.5385 15.6162H18.6923" stroke="currentColor"   stroke-width="1.69231" stroke-miterlimit="10"/>
</svg>
