<svg width="58" height="85" viewBox="0 0 58 85" fill="none" xmlns="http://www.w3.org/2000/svg">
<path d="M17 79.5767V46C17 44.8954 17.8954 44 19 44H39C40.1046 44 41 44.8954 41 46V79.5767C41 81.4355 38.6857 82.289 37.4789 80.8752L30.5211 72.7248C29.7227 71.7894 28.2773 71.7895 27.4789 72.7248L20.5211 80.8752C19.3143 82.289 17 81.4355 17 79.5767Z" fill="#DE9427"/>
<g filter="url(#filter0_d_1278_33)">
<path d="M28.93 49.86C42.6985 49.86 53.86 38.6985 53.86 24.93C53.86 11.1615 42.6985 0 28.93 0C15.1616 0 4 11.1615 4 24.93C4 38.6985 15.1616 49.86 28.93 49.86Z" fill="#F8C67C"/>
<path d="M52.86 24.93C52.86 38.1462 42.1462 48.86 28.93 48.86C15.7138 48.86 5 38.1462 5 24.93C5 11.7138 15.7138 1 28.93 1C42.1462 1 52.86 11.7138 52.86 24.93Z" stroke="#DE9427" stroke-width="2"/>
</g>
<path d="M30.5005 12.6176L33.8158 19.3725C33.8971 19.5382 34.0167 19.6818 34.1647 19.7911C34.3126 19.9004 34.4846 19.9722 34.6659 20.0004L42.071 21.0755C42.2711 21.1124 42.4577 21.203 42.6111 21.3376C42.7645 21.4723 42.8791 21.646 42.9429 21.8407C43.0067 22.0353 43.0172 22.2436 42.9735 22.4438C42.9298 22.644 42.8334 22.8286 42.6944 22.9783L37.3389 28.2299C37.2078 28.3589 37.11 28.5183 37.054 28.694C36.9981 28.8698 36.9856 29.0567 37.0178 29.2384L38.274 36.6688C38.3111 36.8778 38.289 37.0932 38.2103 37.2902C38.1317 37.4872 37.9996 37.658 37.8292 37.783C37.6588 37.908 37.4569 37.9822 37.2466 37.9972C37.0363 38.0121 36.8261 37.9672 36.6399 37.8676L30.0283 34.3569C29.8645 34.2726 29.6832 34.2286 29.4993 34.2286C29.3154 34.2286 29.1341 34.2726 28.9704 34.3569L22.3587 37.8676C22.1725 37.9672 21.9623 38.0121 21.752 37.9972C21.5417 37.9822 21.3398 37.908 21.1694 37.783C20.999 37.658 20.8669 37.4872 20.7883 37.2902C20.7096 37.0932 20.6876 36.8778 20.7246 36.6688L21.9903 29.2384C22.0205 29.0559 22.0061 28.8688 21.9485 28.6931C21.891 28.5174 21.7918 28.3585 21.6597 28.2299L16.3043 22.9783C16.1652 22.8279 16.0689 22.6426 16.0257 22.4418C15.9825 22.2409 15.9939 22.0321 16.0587 21.8372C16.1235 21.6424 16.2393 21.4688 16.3939 21.3347C16.5485 21.2006 16.7362 21.1111 16.9371 21.0755L24.3328 20.0004C24.5141 19.9722 24.686 19.9004 24.834 19.7911C24.9819 19.6818 25.1016 19.5382 25.1828 19.3725L28.4981 12.6176C28.5923 12.4317 28.7356 12.2757 28.9123 12.1667C29.089 12.0577 29.2921 12 29.4993 12C29.7065 12 29.9097 12.0577 30.0863 12.1667C30.263 12.2757 30.4064 12.4317 30.5005 12.6176Z" fill="#DE9427"/>
<path d="M31.026 25.435L32.764 23.455V22.3H27.374V23.73H30.652L29.068 25.523V26.7H29.882C30.894 26.7 31.323 27.063 31.323 27.646C31.323 28.273 30.773 28.636 29.882 28.636C29.079 28.636 28.265 28.383 27.682 27.943L26.989 29.307C27.737 29.835 28.848 30.132 29.926 30.132C32.115 30.132 33.116 28.944 33.116 27.646C33.116 26.513 32.412 25.655 31.026 25.435Z" fill="white"/>
<defs>
<filter id="filter0_d_1278_33" x="0" y="0" width="57.8599" height="57.8601" filterUnits="userSpaceOnUse" color-interpolation-filters="sRGB">
<feFlood flood-opacity="0" result="BackgroundImageFix"/>
<feColorMatrix in="SourceAlpha" type="matrix" values="0 0 0 0 0 0 0 0 0 0 0 0 0 0 0 0 0 0 127 0" result="hardAlpha"/>
<feOffset dy="4"/>
<feGaussianBlur stdDeviation="2"/>
<feComposite in2="hardAlpha" operator="out"/>
<feColorMatrix type="matrix" values="0 0 0 0 0 0 0 0 0 0 0 0 0 0 0 0 0 0 0.25 0"/>
<feBlend mode="normal" in2="BackgroundImageFix" result="effect1_dropShadow_1278_33"/>
<feBlend mode="normal" in="SourceGraphic" in2="effect1_dropShadow_1278_33" result="shape"/>
</filter>
</defs>
</svg>
