<svg width="10" height="11" viewBox="0 0 10 11" fill="none" xmlns="http://www.w3.org/2000/svg">
<path d="M9.25532 0.851064H7.87234V0.319149C7.87234 0.234505 7.83872 0.153329 7.77886 0.0934765C7.71901 0.0336245 7.63784 0 7.55319 0C7.46855 0 7.38737 0.0336245 7.32752 0.0934765C7.26767 0.153329 7.23404 0.234505 7.23404 0.319149V0.851064H2.76596V0.319149C2.76596 0.234505 2.73233 0.153329 2.67248 0.0934765C2.61263 0.0336245 2.53145 0 2.44681 0C2.36216 0 2.28099 0.0336245 2.22114 0.0934765C2.16128 0.153329 2.12766 0.234505 2.12766 0.319149V0.851064H0.744681C0.547247 0.851285 0.357963 0.929813 0.218356 1.06942C0.0787495 1.20903 0.000221317 1.39831 0 1.59574V10.1064C0.000221317 10.3038 0.0787495 10.4931 0.218356 10.6327C0.357963 10.7723 0.547247 10.8508 0.744681 10.8511H9.25532C9.45275 10.8508 9.64204 10.7723 9.78164 10.6327C9.92125 10.4931 9.99978 10.3038 10 10.1064V1.59574C9.99978 1.39831 9.92125 1.20903 9.78164 1.06942C9.64204 0.929813 9.45275 0.851285 9.25532 0.851064ZM0.744681 1.48936H2.12766V2.02128C2.12766 2.10592 2.16128 2.1871 2.22114 2.24695C2.28099 2.3068 2.36216 2.34043 2.44681 2.34043C2.53145 2.34043 2.61263 2.3068 2.67248 2.24695C2.73233 2.1871 2.76596 2.10592 2.76596 2.02128V1.48936H7.23404V2.02128C7.23404 2.10592 7.26767 2.1871 7.32752 2.24695C7.38737 2.3068 7.46855 2.34043 7.55319 2.34043C7.63784 2.34043 7.71901 2.3068 7.77886 2.24695C7.83872 2.1871 7.87234 2.10592 7.87234 2.02128V1.48936H9.25532C9.28352 1.4894 9.31056 1.50062 9.3305 1.52056C9.35045 1.5405 9.36167 1.56754 9.3617 1.59574V3.40425H0.638298V1.59574C0.638334 1.56754 0.649554 1.5405 0.669497 1.52056C0.68944 1.50062 0.716478 1.4894 0.744681 1.48936ZM9.25532 10.2128H0.744681C0.716478 10.2127 0.68944 10.2015 0.669497 10.1816C0.649554 10.1616 0.638334 10.1346 0.638298 10.1064V4.04255H9.3617V10.1064C9.36167 10.1346 9.35045 10.1616 9.3305 10.1816C9.31056 10.2015 9.28352 10.2127 9.25532 10.2128Z" fill="currentColor"/>
</svg>
