<svg width="27" height="22" viewBox="0 0 27 22" fill="none" xmlns="http://www.w3.org/2000/svg">
<path d="M24.0463 4.54818H21.9649L19.9831 1.2827C19.5035 0.492173 18.6296 0 17.7046 0H9.00749C8.08154 0 7.2086 0.491189 6.72902 1.28168L4.74625 4.54813H2.66482C1.19486 4.54813 0 5.74299 0 7.21295V19.3352C0 20.8051 1.19486 22 2.66482 22H24.0466C25.5166 22 26.7124 20.8051 26.7124 19.3352L26.7122 7.21295C26.7114 5.74376 25.5158 4.54792 24.0466 4.54792L24.0463 4.54818ZM25.0969 19.3364C25.0969 19.9164 24.6255 20.3878 24.0455 20.3878H2.66477C2.08475 20.3878 1.61338 19.9164 1.61338 19.3364V7.21315C1.61338 6.63314 2.08476 6.16176 2.66477 6.16176H5.20057C5.48208 6.16176 5.74376 6.0147 5.89086 5.77361L8.1093 2.11917C8.29837 1.80725 8.6427 1.61357 9.00744 1.61357H17.7046C18.0693 1.61357 18.4145 1.80725 18.6036 2.11917L20.8212 5.77259C20.9673 6.01368 21.229 6.16074 21.5115 6.16074H24.0473C24.6264 6.16074 25.0987 6.63212 25.0987 7.21213L25.0985 19.3364H25.0969Z" fill="white"/>
<path d="M13.3557 6.5811C10.1441 6.5811 7.53149 9.19393 7.53149 12.4063C7.53149 15.618 10.1443 18.2306 13.3557 18.2306C16.5671 18.2306 19.181 15.6177 19.181 12.4063C19.181 9.19368 16.5672 6.5811 13.3557 6.5811ZM13.3557 16.6177C11.0342 16.6177 9.14467 14.7281 9.14467 12.4066C9.14467 10.0841 11.0342 8.19458 13.3557 8.19458C15.6782 8.19458 17.5668 10.0841 17.5668 12.4066C17.5668 14.7281 15.6782 16.6177 13.3557 16.6177Z" fill="white"/>
</svg>
