<svg width="57" height="57" viewBox="0 0 57 57" fill="none" xmlns="http://www.w3.org/2000/svg">
<path d="M9.94258 1.87031C9.12989 2.15976 8.42852 2.77207 8.05 3.54023L7.73828 4.1748L7.70489 23.4457C7.68262 42.1711 7.68262 42.7277 7.89414 42.9838C8.1836 43.34 8.85156 43.34 9.14102 42.9838C9.34141 42.7389 9.35254 42.1822 9.35254 26.2066V9.68555H23.1016H36.8506V11.8564C36.8506 14.1609 36.9063 14.4727 37.3738 14.6842C37.7524 14.8623 37.8971 14.84 38.2311 14.5729L38.5205 14.3502V9.36269C38.5205 3.76289 38.5205 3.75176 37.719 2.83887C37.474 2.56054 37.0065 2.19316 36.6947 2.02617L36.127 1.72558L23.3242 1.70332C11.2451 1.68105 10.4881 1.68105 9.94258 1.87031ZM35.9711 3.5625C36.7615 3.97441 36.8506 4.25273 36.8506 6.25664V8.01562H23.1016H9.35254V6.33457C9.35254 4.36406 9.48614 3.96328 10.2877 3.5625C10.733 3.33984 10.9334 3.33984 23.135 3.33984C35.3811 3.33984 35.5258 3.33984 35.9711 3.5625Z" fill="#BFBFC0"/>
<path d="M22.6899 4.95365C22.278 5.1763 22.1667 5.72181 22.4672 6.11146L22.6788 6.40091L25.1948 6.43431C27.5995 6.45658 27.7331 6.44545 27.9446 6.23392C28.2786 5.89994 28.2452 5.3099 27.8778 5.02045C27.5995 4.79779 27.4436 4.78666 25.2838 4.78666C23.5026 4.79779 22.9237 4.83119 22.6899 4.95365Z" fill="#BFBFC0"/>
<path d="M24.6814 11.8905C24.4699 12.1243 19.4824 24.6153 19.4824 24.9159C19.4824 25.4837 20.2617 25.8844 20.7516 25.5616C20.952 25.4391 21.5977 23.9139 23.5348 19.06C24.9152 15.5754 26.0508 12.5919 26.0508 12.436C26.0508 11.8014 25.1045 11.4229 24.6814 11.8905Z" fill="#BFBFC0"/>
<path d="M17.0889 14.3605C16.9664 14.4051 15.9979 15.318 14.9514 16.3867C13.3371 18.0121 13.0254 18.3795 13.0254 18.6578C13.0254 18.925 13.3482 19.3146 15.007 21.018C17.1334 23.2111 17.2559 23.2891 17.857 22.8103C18.0686 22.6434 18.1465 22.4875 18.1465 22.1758C18.1465 21.8084 18.0129 21.6414 16.5879 20.2164L15.0404 18.6467L16.5879 17.0769C18.0018 15.6631 18.1465 15.4738 18.1465 15.1176C18.1465 14.5387 17.601 14.149 17.0889 14.3605Z" fill="#BFBFC0"/>
<path d="M28.5334 14.3618C28.2328 14.4842 28.0547 14.8071 28.0547 15.2079C28.0547 15.4528 28.3775 15.8313 29.6133 17.0893L31.183 18.659L29.6133 20.2844C27.9211 22.0545 27.8098 22.2549 28.333 22.767C28.8785 23.3237 29.0344 23.2235 31.1941 21.0637C32.9643 19.2936 33.1758 19.0487 33.1758 18.7147C33.1758 18.3918 32.9643 18.1247 31.3723 16.4547C29.758 14.7626 29.1568 14.2393 28.8674 14.2616C28.8229 14.2616 28.667 14.3061 28.5334 14.3618Z" fill="#BFBFC0"/>
<path d="M35.3021 20.8072C35.1908 20.9186 35.0684 21.2414 35.035 21.5531C35.0016 21.8537 34.9348 22.377 34.9014 22.7221L34.8234 23.3344L34.1221 23.6461L33.4207 23.9467L32.441 23.2787C31.8621 22.8668 31.35 22.5996 31.183 22.5996C30.9604 22.5996 30.5707 22.9225 29.4908 24.0135C28.7115 24.8039 28.0547 25.5275 28.0213 25.6389C27.9211 25.9283 28.077 26.2512 28.7672 27.1084C29.1123 27.5314 29.3906 27.9322 29.3906 27.999C29.3906 28.077 29.001 29.1346 28.8785 29.3684C28.8785 29.3795 28.3664 29.4797 27.743 29.591C26.0953 29.8916 26.1621 29.7691 26.1621 32.2852C26.1621 34.8234 26.0842 34.701 27.743 34.9125C28.3775 34.9904 28.8896 35.0572 28.9008 35.0572C28.9119 35.0684 29.0455 35.3912 29.2125 35.7809L29.5131 36.4934L28.8896 37.3617C28.2439 38.2746 28.0992 38.5863 28.2105 38.9314C28.2439 39.0539 28.9008 39.7553 29.6467 40.5012C31.3389 42.1711 31.3055 42.16 32.6414 41.1357L33.5877 40.4121L34.2445 40.7016C34.6008 40.8574 34.9348 41.0355 34.9682 41.1023C35.0127 41.158 35.1018 41.6701 35.1797 42.2268C35.3689 43.4848 35.5693 43.752 36.3486 43.752H36.8496V44.6982V45.6445H22.5105H8.16035L7.92656 45.9006C7.68164 46.1566 7.68164 46.2234 7.68164 49.3518C7.68164 52.2686 7.70391 52.5914 7.9043 53.1369C8.20488 53.9496 8.78379 54.5842 9.55195 54.9627L10.1865 55.2744H23.1006H36.0146L36.6047 55.0072C36.9498 54.8514 37.384 54.5285 37.6734 54.2057C38.5084 53.2705 38.5195 53.2148 38.5195 48.1828V43.752H39.1764C40.1783 43.752 40.2896 43.6184 40.4789 42.1377C40.568 41.4697 40.6459 40.9242 40.6682 40.9131C41.2805 40.6348 42.0152 40.401 42.1377 40.4455C42.2156 40.4789 42.6275 40.7572 43.0506 41.0578C43.4625 41.3584 43.9189 41.6479 44.0525 41.6813C44.4533 41.8037 44.8764 41.492 46.19 40.1227C47.7152 38.5084 47.7041 38.5195 46.7133 37.2504L45.9896 36.3264L46.2791 35.6027L46.5574 34.8902L47.6707 34.7121C49.3518 34.4338 49.3184 34.5006 49.3184 32.0514C49.3184 29.5465 49.374 29.6355 47.7041 29.4018L46.5129 29.2236L46.2346 28.5223L45.9562 27.8209L46.6354 26.8078C47.192 25.9951 47.3145 25.7279 47.2588 25.5053C47.1697 25.1379 44.5869 22.5217 44.2307 22.4326C43.8967 22.3547 43.6518 22.4883 42.7277 23.223C42.3158 23.557 41.9373 23.8242 41.8816 23.8242C41.826 23.8242 41.492 23.7018 41.1246 23.557L40.4678 23.2898L40.2785 22.1543C40.1672 21.4641 40.0113 20.9297 39.9 20.8072C39.7219 20.618 39.5215 20.5957 37.6066 20.5957C35.7141 20.5957 35.4914 20.618 35.3021 20.8072ZM38.7311 23.1229C38.9537 24.5479 39.0205 24.6369 40.0225 24.9486C40.2674 25.0154 40.7572 25.227 41.1023 25.3939C41.4586 25.5721 41.8705 25.7168 42.0152 25.7168C42.1822 25.7168 42.6164 25.4496 43.1508 25.0377L44.008 24.3586L44.676 25.0266L45.3551 25.7057L44.7205 26.6297C44.3754 27.1418 44.0859 27.6428 44.0859 27.7541C44.0859 27.8654 44.2307 28.2328 44.4088 28.5891C44.5869 28.9342 44.8207 29.5131 44.932 29.8805C45.0434 30.2367 45.2326 30.593 45.3662 30.682C45.4887 30.76 46.0564 30.8824 46.6242 30.9604L47.6484 31.0939V32.0625V33.0311L46.6354 33.1758C46.0787 33.2537 45.5332 33.3984 45.4107 33.4986C45.2883 33.5988 45.0434 34.0887 44.8764 34.6008C44.6982 35.1018 44.4756 35.6361 44.3754 35.792C44.0525 36.293 44.1416 36.6938 44.8096 37.5398C45.1436 37.9629 45.4219 38.3525 45.4219 38.3971C45.4219 38.4416 45.1213 38.7645 44.765 39.1207L44.1082 39.7775L43.2398 39.143C42.7611 38.7979 42.2602 38.5195 42.1154 38.5195C41.9818 38.5195 41.5254 38.6865 41.1135 38.898C40.7016 39.1096 40.1449 39.3322 39.8889 39.399C39.1875 39.5883 38.9982 39.9 38.9092 41.0801L38.8312 42.082H37.8516H36.8719L36.8051 41.7703C36.7717 41.6033 36.6937 41.1469 36.6158 40.7461C36.549 40.3564 36.4488 39.9445 36.4043 39.8443C36.3486 39.7441 35.9256 39.5326 35.4803 39.3768C35.0238 39.2098 34.3893 38.9537 34.0664 38.809C33.365 38.4861 33.2092 38.5195 32.3074 39.2543C31.9623 39.5438 31.6061 39.7998 31.5281 39.8332C31.3723 39.8889 30.1699 38.7756 30.1699 38.5752C30.1699 38.5084 30.3926 38.141 30.6709 37.7625C31.4613 36.6715 31.4725 36.6381 30.9604 35.5248C30.7266 35.0016 30.4705 34.3781 30.4037 34.1555C30.3258 33.9328 30.1922 33.6879 30.1143 33.6211C30.0252 33.5432 29.4797 33.4318 28.923 33.3539L27.8877 33.2314L27.8543 32.2629L27.8209 31.3055L28.1326 31.2387C28.2996 31.2053 28.7672 31.1273 29.168 31.0605C29.5687 30.9826 29.9807 30.849 30.0809 30.76C30.1811 30.6709 30.3814 30.259 30.515 29.8471C30.6486 29.4463 30.8713 28.9008 31.016 28.6447C31.4279 27.9322 31.3723 27.665 30.6152 26.7188L29.9473 25.8838L30.6264 25.2047L31.3055 24.5145L32.1404 25.1156C32.5969 25.4385 33.0756 25.7391 33.1869 25.7725C33.3205 25.817 33.6545 25.7168 34.0441 25.5164C34.3893 25.3383 35.0127 25.0822 35.4357 24.9486C35.8477 24.8039 36.2262 24.6035 36.293 24.5033C36.3709 24.3475 36.627 22.7221 36.627 22.3547C36.627 22.299 37.0723 22.2656 37.6178 22.2656H38.5975L38.7311 23.1229ZM36.8496 49.9195C36.8496 52.4244 36.8385 52.5246 36.6047 52.8809C36.46 53.0813 36.1705 53.3373 35.959 53.4486C35.5916 53.649 35.0238 53.6602 23.1674 53.6602C10.9881 53.6602 10.7543 53.6602 10.2979 53.4375C10.0084 53.2928 9.75234 53.059 9.59648 52.7807C9.3627 52.3688 9.35156 52.2129 9.35156 49.8305V47.3145H23.1006H36.8496V49.9195Z" fill="#BFBFC0"/>
<path d="M36.4387 27.8875C35.2475 28.2548 34.0562 29.3458 33.6109 30.4814C33.4105 30.9824 33.3549 31.3386 33.3438 32.1736C33.3438 33.1421 33.3771 33.298 33.7 33.9771C35.0582 36.8494 38.6875 37.4617 40.9141 35.2017C43.2186 32.8638 42.1498 28.8226 38.977 27.8986C38.2533 27.6871 37.0844 27.6759 36.4387 27.8875ZM39.1662 29.8023C39.7896 30.1808 40.3574 31.0492 40.4687 31.7839C40.5689 32.4964 40.2795 33.4093 39.7785 33.966C39.3889 34.4001 38.8879 34.7341 38.6318 34.7341C38.565 34.7341 38.5205 34.1218 38.5205 32.964V31.1828L38.2311 30.9601C37.8303 30.6484 37.5631 30.6707 37.1734 31.0492L36.8506 31.372V33.0531C36.8506 33.9771 36.8172 34.7341 36.7727 34.7341C36.7393 34.7341 36.4943 34.6117 36.2383 34.4669C34.7687 33.5986 34.5461 31.3498 35.8152 30.1474C36.6947 29.3125 38.1309 29.1566 39.1662 29.8023Z" fill="#BFBFC0"/>
<path d="M18.7251 50.243C18.2798 50.7217 18.5136 51.4342 19.1704 51.6012C19.3151 51.6346 21.1966 51.6569 23.3563 51.6346L27.2973 51.6012L27.5089 51.334C27.7872 51 27.7761 50.4879 27.4977 50.2096C27.2862 49.9981 27.1304 49.9869 23.1225 49.9869H18.9589L18.7251 50.243Z" fill="#BFBFC0"/>
</svg>
