<svg
  width="24"
  height="21"
  viewBox="0 0 24 24"
  fill="none"
  xmlns="http://www.w3.org/2000/svg"
>
<path
    fill-rule="evenodd"
    clip-rule="evenodd"
    d="M5.64492 1.06576C4.82552 1.2645 4.1573 1.95369 3.98557 2.77712C3.95329 2.93192 3.93498 3.7151 3.93498 4.94042V6.86111H2.7543C1.6199 6.86111 1.56574 6.86514 1.37271 6.96412C1.13056 7.08829 1.00475 7.30334 1.00488 7.59292C1.00498 7.856 1.12223 8.08977 1.32061 8.22227C1.47271 8.32386 1.50366 8.3262 2.70558 8.3262H3.93498V9.78854V11.2509L2.70206 11.2651C1.53465 11.2785 1.46227 11.2844 1.33998 11.3751C0.888227 11.7101 0.88635 12.3558 1.33632 12.6301C1.47536 12.7149 1.56894 12.7212 2.71025 12.7213L3.93498 12.7215V14.2074V15.6934L2.65371 15.7068L1.37244 15.7203L1.20318 15.8897C1.05355 16.0394 1.03158 16.0908 1.01413 16.3321C0.998109 16.5531 1.01358 16.6392 1.09545 16.7849C1.28865 17.1286 1.32849 17.1378 2.71025 17.1544L3.93498 17.1692V19.0865C3.93498 21.1488 3.94912 21.3106 4.16925 21.7638C4.42954 22.2997 4.85345 22.674 5.44585 22.891L5.74345 23H13.481C20.944 23 21.2274 22.9969 21.4703 22.9136C22.2354 22.6512 22.7952 22.0257 22.9597 21.2497C23.0375 20.8825 23.0519 19.2917 22.9798 19.032C22.8295 18.4907 21.9874 18.376 21.666 18.8529C21.5658 19.0015 21.5619 19.0444 21.5619 19.9753C21.5619 20.888 21.556 20.9549 21.4588 21.1475C21.3836 21.2967 21.3008 21.3795 21.1515 21.4548L20.9472 21.5578H13.481H6.01467L5.81038 21.4548C5.66085 21.3794 5.57835 21.2967 5.50262 21.1466L5.39915 20.9414L5.41105 11.9404L5.42296 2.93942L5.55491 2.76645C5.80255 2.44175 5.19509 2.46377 13.5458 2.47687C21.0873 2.48873 21.0975 2.48886 21.2266 2.58299C21.2977 2.63482 21.4022 2.76796 21.4588 2.87881L21.5619 3.08044V8.44359V13.8067L21.666 13.9613C21.9874 14.4382 22.8295 14.3235 22.9798 13.7822C23.0102 13.6726 23.0263 11.785 23.0259 8.34909C23.0254 4.00569 23.0141 3.03085 22.9611 2.78074C22.777 1.91235 22.1008 1.22866 21.2506 1.05133C20.8808 0.974233 5.96545 0.988014 5.64492 1.06576ZM12.9773 3.96366C12.682 4.0045 12.2756 4.12912 11.9545 4.27733C10.791 4.81433 10.0105 5.88911 9.8398 7.18943C9.72263 8.08235 10.0114 9.1048 10.5858 9.83007L10.7433 10.029L10.3618 10.2254C9.25774 10.7935 8.54273 11.7997 8.37228 13.0252C8.2634 13.8079 8.4985 14.1868 9.0926 14.1864C9.53844 14.1861 9.7643 13.9319 9.81489 13.3736C9.87267 12.7358 10.1341 12.1797 10.5441 11.8225C10.8188 11.5832 11.3193 11.3578 11.6954 11.304C12.1114 11.2445 14.8505 11.2445 15.2665 11.304C16.2912 11.4505 16.9932 12.2008 17.1352 13.3012C17.2035 13.8299 17.2701 13.961 17.5416 14.0994C17.9008 14.2827 18.3126 14.1629 18.5172 13.8155C18.6355 13.6148 18.6276 13.077 18.4992 12.5782C18.4056 12.2143 18.1298 11.6238 17.9249 11.3479C17.5641 10.8626 16.877 10.3102 16.4143 10.1334L16.2118 10.0561L16.482 9.6663C16.9402 9.00527 17.1395 8.35623 17.1325 7.54787C17.1206 6.17256 16.3408 4.94294 15.0855 4.31991C14.4526 4.00583 13.6513 3.87044 12.9773 3.96366ZM14.2179 5.5379C14.9048 5.79214 15.4239 6.35322 15.6092 7.04168C15.6927 7.35191 15.6747 7.93859 15.5716 8.26888C15.2241 9.38129 14.0393 10.0211 12.8839 9.72023C12.0846 9.5121 11.4269 8.76637 11.3091 7.93447C11.1464 6.78607 11.9136 5.67296 13.0236 5.44684C13.3548 5.3794 13.9026 5.42115 14.2179 5.5379ZM8.64607 15.8014C8.13621 16.142 8.26629 16.9511 8.85677 17.1121C9.10496 17.1797 17.8492 17.1822 18.0923 17.1147C18.4191 17.0239 18.6339 16.7304 18.6307 16.3789C18.6289 16.1878 18.4611 15.8869 18.3024 15.7901C18.1531 15.6991 18.0833 15.6978 13.4763 15.6976L8.80164 15.6974L8.64607 15.8014ZM21.8766 15.8091C21.3607 16.1597 21.5006 16.9523 22.1072 17.1156C22.7513 17.2891 23.2822 16.4743 22.8555 15.9672C22.6084 15.6735 22.1783 15.6041 21.8766 15.8091ZM10.1158 18.7306C9.88787 18.8863 9.78609 19.1062 9.80788 19.3964C9.8272 19.6538 9.91735 19.8141 10.1335 19.9754C10.2584 20.0687 10.2993 20.0698 13.4581 20.0698C16.6168 20.0698 16.6578 20.0687 16.7827 19.9754C16.9988 19.8141 17.0889 19.6538 17.1083 19.3964C17.13 19.1062 17.0283 18.8863 16.8004 18.7306L16.6494 18.6276H13.4581H10.2667L10.1158 18.7306Z"
    fill="currentColor"
    stroke="currentColor"
    stroke-width="0.6"
  />
</svg>
