<svg
  width="25"
  height="24"
  viewBox="0 0 25 25"
  fill="none"
  xmlns="http://www.w3.org/2000/svg"
>
<path
    d="M17.5794 4.64097H3.15885C2.87212 4.64097 2.63963 4.40848 2.63963 4.12175C2.63963 3.8348 2.87212 3.60254 3.15885 3.60254H17.5794C17.8661 3.60254 18.0986 3.8348 18.0986 4.12175C18.0986 4.40848 17.8661 4.64097 17.5794 4.64097Z"
    fill="currentColor"
    stroke="currentColor"
    stroke-width="0.803409"
  />
<path
    d="M18.1538 23.1043H3.15889C2.56224 23.1043 1.98998 22.8672 1.56808 22.4454C1.14598 22.0235 0.909119 21.4512 0.909119 20.8544V5.85231C0.909119 5.25566 1.14601 4.6834 1.56808 4.2615C1.98994 3.8394 2.56224 3.60254 3.15889 3.60254C3.44585 3.60254 3.67811 3.8348 3.67811 4.12175C3.67811 4.40848 3.44585 4.64097 3.15889 4.64097C2.83763 4.64097 2.52961 4.76845 2.3024 4.99562C2.07501 5.223 1.94752 5.53105 1.94752 5.85235V20.8544C1.94752 21.1759 2.075 21.4839 2.3024 21.7112C2.52955 21.9383 2.8376 22.066 3.15889 22.066H18.1538C18.4751 22.066 18.7831 21.9383 19.0103 21.7112C19.2377 21.484 19.3652 21.1759 19.3652 20.8544V5.85235C19.3652 5.53108 19.2377 5.22306 19.0103 4.99562C18.7832 4.76846 18.4751 4.64097 18.1538 4.64097H17.5792C17.2925 4.64097 17.06 4.40848 17.06 4.12175C17.06 3.8348 17.2925 3.60254 17.5792 3.60254H18.1538C18.7505 3.60254 19.3228 3.83943 19.7447 4.2615C20.1668 4.68336 20.4036 5.25566 20.4036 5.85231V20.8544C20.4036 21.4513 20.1667 22.0235 19.7447 22.4454C19.3228 22.8672 18.7505 23.1043 18.1538 23.1043V23.1043Z"
    fill="currentColor"
    stroke="currentColor"
    stroke-width="0.803409"
  />
<path
    d="M19.8848 10.4144H1.42858C1.14185 10.4144 0.909363 10.1821 0.909363 9.89519C0.909363 9.60847 1.14185 9.37598 1.42858 9.37598H19.8848C20.1715 9.37598 20.404 9.60847 20.404 9.89519C20.404 10.1821 20.1715 10.4144 19.8848 10.4144Z"
    fill="currentColor"
    stroke="currentColor"
    stroke-width="0.803409"
  />
<path
    d="M15.8487 6.3713C15.562 6.3713 15.3295 6.13881 15.3295 5.85209V1.81609C15.3295 1.52936 15.562 1.29688 15.8487 1.29688C16.1354 1.29688 16.3679 1.52936 16.3679 1.81609V5.85209C16.3679 6.13881 16.1354 6.3713 15.8487 6.3713Z"
    fill="currentColor"
    stroke="currentColor"
    stroke-width="0.803409"
  />
<path
    d="M5.46415 6.3713C5.17742 6.3713 4.94493 6.13881 4.94493 5.85209V1.81609C4.94493 1.52936 5.17742 1.29688 5.46415 1.29688C5.75087 1.29688 5.98336 1.52936 5.98336 1.81609V5.85209C5.98336 6.13881 5.75087 6.3713 5.46415 6.3713Z"
    fill="currentColor"
    stroke="currentColor"
    stroke-width="0.803409"
  />
<path
    d="M9.61783 19.1231C9.48988 19.1245 9.36633 19.0775 9.27177 18.9915L7.1949 17.0947C7.08573 17.0066 7.01689 16.8784 7.0039 16.7389C6.99092 16.5994 7.03473 16.4605 7.1256 16.3539C7.21808 16.2431 7.35206 16.1754 7.496 16.1661C7.63995 16.1571 7.78134 16.2074 7.88703 16.3054L9.60394 17.8561L12.8854 14.0969C13.0767 13.8811 13.4068 13.8609 13.6228 14.0519C13.8388 14.2432 13.859 14.5732 13.6678 14.7893L10.0402 18.943C9.94863 19.0471 9.8186 19.1094 9.68022 19.1162L9.61783 19.1231Z"
    fill="currentColor"
    stroke="currentColor"
    stroke-width="0.803409"
  />
</svg>
