<svg width="10" height="10" viewBox="0 0 10 10" fill="none" xmlns="http://www.w3.org/2000/svg">
<path d="M8.52941 0.784314H7.2549V0.294118C7.2549 0.216113 7.22392 0.141303 7.16876 0.086145C7.1136 0.0309873 7.03879 0 6.96078 0C6.88278 0 6.80797 0.0309873 6.75281 0.086145C6.69765 0.141303 6.66667 0.216113 6.66667 0.294118V0.784314H2.54902V0.294118C2.54902 0.216113 2.51803 0.141303 2.46287 0.086145C2.40772 0.0309873 2.33291 0 2.2549 0C2.1769 0 2.10209 0.0309873 2.04693 0.086145C1.99177 0.141303 1.96078 0.216113 1.96078 0.294118V0.784314H0.686275C0.504326 0.784518 0.329888 0.856887 0.20123 0.985544C0.0725731 1.1142 0.000203959 1.28864 0 1.47059V9.31373C0.000203959 9.49567 0.0725731 9.67011 0.20123 9.79877C0.329888 9.92743 0.504326 9.9998 0.686275 10H8.52941C8.71136 9.9998 8.8858 9.92743 9.01446 9.79877C9.14311 9.67011 9.21548 9.49567 9.21569 9.31373V1.47059C9.21548 1.28864 9.14311 1.1142 9.01446 0.985544C8.8858 0.856887 8.71136 0.784518 8.52941 0.784314ZM0.686275 1.37255H1.96078V1.86275C1.96078 1.94075 1.99177 2.01556 2.04693 2.07072C2.10209 2.12588 2.1769 2.15686 2.2549 2.15686C2.33291 2.15686 2.40772 2.12588 2.46287 2.07072C2.51803 2.01556 2.54902 1.94075 2.54902 1.86275V1.37255H6.66667V1.86275C6.66667 1.94075 6.69765 2.01556 6.75281 2.07072C6.80797 2.12588 6.88278 2.15686 6.96078 2.15686C7.03879 2.15686 7.1136 2.12588 7.16876 2.07072C7.22392 2.01556 7.2549 1.94075 7.2549 1.86275V1.37255H8.52941C8.5554 1.37258 8.58032 1.38292 8.5987 1.4013C8.61708 1.41968 8.62742 1.4446 8.62745 1.47059V3.13725H0.588235V1.47059C0.588269 1.4446 0.598609 1.41968 0.616988 1.4013C0.635366 1.38292 0.660283 1.37258 0.686275 1.37255ZM8.52941 9.41177H0.686275C0.660283 9.41173 0.635366 9.40139 0.616988 9.38301C0.598609 9.36463 0.588269 9.33972 0.588235 9.31373V3.72549H8.62745V9.31373C8.62742 9.33972 8.61708 9.36463 8.5987 9.38301C8.58032 9.40139 8.5554 9.41173 8.52941 9.41177Z" fill="currentColor"/>
</svg>
