<svg width="24" height="24" viewBox="0 0 24 24" fill="none" xmlns="http://www.w3.org/2000/svg">
<path d="M3.8782 0H20.1218C21.1504 0 22.1368 0.408477 22.864 1.13605C23.5915 1.86328 24 2.84964 24 3.8782V20.1218C24 21.1504 23.5915 22.1368 22.864 22.8639C22.1367 23.5915 21.1504 24 20.1218 24H3.8782C2.84964 24 1.86325 23.5915 1.13605 22.8639C0.408487 22.1367 0 21.1504 0 20.1218V3.8782C0 2.84964 0.40848 1.86324 1.13605 1.13605C1.86328 0.408485 2.84964 0 3.8782 0ZM20.1218 1.29608H3.8782C3.19349 1.29608 2.53661 1.56795 2.05241 2.05243C1.56793 2.53658 1.29606 3.19345 1.29606 3.87822V18.2781L6.62402 12.9598C6.75025 12.8319 6.92435 12.7626 7.10382 12.768C7.28329 12.7646 7.45605 12.8339 7.58396 12.9598L9.87851 15.2544L15.9695 9.11987C16.091 8.99832 16.2558 8.93003 16.4279 8.93003C16.6 8.93003 16.7647 8.99833 16.8862 9.11987L22.7037 14.9326V3.8927C22.7077 3.20566 22.4372 2.54503 21.9527 2.05757C21.4679 1.57008 20.8089 1.2962 20.1216 1.2962L20.1218 1.29608ZM3.8782 22.7039H20.1218C20.8065 22.7039 21.4634 22.432 21.9476 21.9476C22.4321 21.4634 22.7039 20.8065 22.7039 20.1218V16.7619L16.4305 10.4927L10.2912 16.6272C10.1717 16.7504 10.007 16.8198 9.83521 16.8191C9.66378 16.8198 9.49905 16.7505 9.37952 16.6272L7.08496 14.3327L1.32509 20.0926C1.31739 20.7776 1.5819 21.4375 2.06102 21.9273C2.53981 22.4168 3.19373 22.6964 3.87841 22.7038L3.8782 22.7039Z" fill="white"/>
<path d="M7.07959 10.2239C6.29913 10.2239 5.5508 9.91389 4.99906 9.36208C4.44733 8.81027 4.13721 8.06163 4.13721 7.28155C4.13721 6.50109 4.44726 5.75276 4.99906 5.20102C5.55087 4.64929 6.29917 4.33917 7.07959 4.33917C7.85972 4.33917 8.60838 4.64922 9.16012 5.20102C9.71186 5.75283 10.022 6.50113 10.022 7.28155C10.0206 8.06135 9.71026 8.80897 9.15849 9.36079C8.60705 9.91224 7.85942 10.2226 7.07959 10.2239ZM7.07959 5.63525V5.63491C6.64265 5.63491 6.22413 5.80868 5.91543 6.11739C5.60639 6.42609 5.43296 6.84495 5.43296 7.28155C5.43296 7.71815 5.60639 8.13702 5.91543 8.44571C6.22414 8.75442 6.64266 8.92785 7.07959 8.92785C7.5162 8.92785 7.93472 8.75442 8.24376 8.44571C8.55246 8.13701 8.7259 7.71815 8.7259 7.28155C8.72456 6.84529 8.55078 6.42709 8.24209 6.11876C7.93371 5.81039 7.51586 5.63629 7.07964 5.63495L7.07959 5.63525Z" fill="white"/>
</svg>
