<svg width="21" height="26" viewBox="0 0 21 26" fill="none" xmlns="http://www.w3.org/2000/svg">
<path d="M6.11584 21.6268H0.410154C0.170878 21.6268 0.000238321 21.4218 0.000238321 21.2169L0 0.409916C0 0.17064 0.204958 0 0.409916 0H15.9212C16.1604 0 16.3311 0.204958 16.3311 0.409916V10.8988C16.3311 11.1381 16.1261 11.3087 15.9212 11.3087C15.7162 11.3087 15.5113 11.1038 15.5113 10.8988L15.5115 0.819905H0.854382V20.7727H6.15014C6.38941 20.7727 6.56005 20.9777 6.56005 21.1826C6.56029 21.3878 6.35509 21.6269 6.11606 21.6269L6.11584 21.6268Z" fill="white"/>
<path d="M14.1447 25.9998C10.3863 25.9998 7.31152 22.925 7.31152 19.1666C7.31152 15.4083 10.3863 12.3335 14.1447 12.3335C17.903 12.3335 20.9778 15.4083 20.9778 19.1666C20.9778 22.925 17.9368 25.9998 14.1447 25.9998V25.9998ZM14.1447 13.1876C10.8646 13.1876 8.16567 15.8866 8.16567 19.1666C8.16567 22.4467 10.8306 25.1457 14.1447 25.1457C17.4588 25.1457 20.1237 22.4807 20.1237 19.1666C20.1237 15.8526 17.4585 13.1876 14.1447 13.1876Z" fill="white"/>
<path d="M18.4155 19.5768H14.1448C13.9055 19.5768 13.7349 19.3719 13.7349 19.1669L13.7346 14.7937C13.7346 14.5544 13.9396 14.3838 14.1445 14.3838C14.3495 14.3838 14.5545 14.5887 14.5545 14.7937V18.7226H18.381C18.6202 18.7226 18.7909 18.9276 18.7909 19.1326C18.7911 19.3378 18.6545 19.5768 18.4155 19.5768L18.4155 19.5768Z" fill="white"/>
<path d="M12.6075 3.62159H3.48523C3.24596 3.62159 3.07532 3.41663 3.07532 3.21167C3.07532 3.00672 3.28028 2.80176 3.48523 2.80176H12.6075C12.8468 2.80176 13.0174 3.00672 13.0174 3.21167C13.0176 3.41663 12.8468 3.62159 12.6075 3.62159Z" fill="white"/>
<path d="M12.6075 6.08106H3.48523C3.24596 6.08106 3.07532 5.8761 3.07532 5.67115C3.07532 5.46619 3.28028 5.26123 3.48523 5.26123H12.6075C12.8468 5.26123 13.0174 5.46619 13.0174 5.67115C13.0176 5.8761 12.8468 6.08106 12.6075 6.08106Z" fill="white"/>
<path d="M12.6075 8.57569H3.48523C3.24596 8.57569 3.07532 8.37073 3.07532 8.16578C3.07532 7.96082 3.28028 7.75586 3.48523 7.75586H12.6075C12.8468 7.75586 13.0174 7.96082 13.0174 8.16578C13.0176 8.3705 12.8468 8.57569 12.6075 8.57569Z" fill="white"/>
<path d="M11.9242 11.0357H3.48523C3.24596 11.0357 3.07532 10.8307 3.07532 10.6257C3.07532 10.4208 3.28028 10.2158 3.48523 10.2158H11.9242C12.1634 10.2158 12.3341 10.4208 12.3341 10.6257C12.3341 10.8307 12.1634 11.0357 11.9242 11.0357Z" fill="white"/>
<path d="M7.48263 13.5293H3.48523C3.24596 13.5293 3.07532 13.3243 3.07532 13.1194C3.07532 12.9144 3.28028 12.7095 3.48523 12.7095H7.48263C7.7219 12.7095 7.89254 12.9144 7.89254 13.1194C7.89278 13.3243 7.7219 13.5293 7.48263 13.5293Z" fill="white"/>
<path d="M5.70589 15.9895H3.48523C3.24596 15.9895 3.07532 15.7845 3.07532 15.5796C3.07532 15.3746 3.28028 15.1697 3.48523 15.1697L5.70589 15.1694C5.94516 15.1694 6.1158 15.3744 6.1158 15.5793C6.1158 15.7845 5.94492 15.9895 5.70589 15.9895V15.9895Z" fill="white"/>
<path d="M5.02263 18.4836H3.48523C3.24596 18.4836 3.07532 18.2787 3.07532 18.0737C3.07532 17.8688 3.28028 17.6638 3.48523 17.6638L5.02263 17.6636C5.26191 17.6636 5.43255 17.8685 5.43255 18.0735C5.43279 18.2787 5.26191 18.4836 5.02263 18.4836V18.4836Z" fill="white"/>
</svg>
