<svg
  width="30"
  height="28"
  viewBox="0 0 30 24"
  fill="none"
  xmlns="http://www.w3.org/2000/svg"
>
<path
    d="M20.2953 8.29444L14.2953 3.03444C13.7453 2.54248 13.0333 2.27051 12.2953 2.27051C11.5574 2.27051 10.8453 2.54248 10.2953 3.03444L4.29532 8.29444C3.97769 8.57851 3.72422 8.927 3.55179 9.31668C3.37937 9.70637 3.29193 10.1283 3.29532 10.5544V19.2944C3.29532 20.0901 3.61139 20.8532 4.174 21.4158C4.73661 21.9784 5.49967 22.2944 6.29532 22.2944H18.2953C19.091 22.2944 19.854 21.9784 20.4166 21.4158C20.9793 20.8532 21.2953 20.0901 21.2953 19.2944V10.5444C21.2973 10.12 21.2092 9.69998 21.0368 9.31212C20.8644 8.92426 20.6117 8.5774 20.2953 8.29444V8.29444ZM14.2953 20.2944H10.2953V15.2944C10.2953 15.0292 10.4007 14.7749 10.5882 14.5873C10.7758 14.3998 11.0301 14.2944 11.2953 14.2944H13.2953C13.5605 14.2944 13.8149 14.3998 14.0024 14.5873C14.19 14.7749 14.2953 15.0292 14.2953 15.2944V20.2944ZM19.2953 19.2944C19.2953 19.5597 19.19 19.814 19.0024 20.0015C18.8149 20.1891 18.5605 20.2944 18.2953 20.2944H16.2953V15.2944C16.2953 14.4988 15.9793 13.7357 15.4166 13.1731C14.854 12.6105 14.091 12.2944 13.2953 12.2944H11.2953C10.4997 12.2944 9.73661 12.6105 9.174 13.1731C8.61139 13.7357 8.29532 14.4988 8.29532 15.2944V20.2944H6.29532C6.03011 20.2944 5.77575 20.1891 5.58822 20.0015C5.40068 19.814 5.29532 19.5597 5.29532 19.2944V10.5444C5.2955 10.4025 5.32592 10.2621 5.38454 10.1328C5.44316 10.0035 5.52865 9.88815 5.63532 9.79444L11.6353 4.54444C11.8178 4.38412 12.0524 4.29571 12.2953 4.29571C12.5382 4.29571 12.7728 4.38412 12.9553 4.54444L18.9553 9.79444C19.062 9.88815 19.1475 10.0035 19.2061 10.1328C19.2647 10.2621 19.2951 10.4025 19.2953 10.5444V19.2944Z"
    fill="currentColor"
  />
</svg>
