<svg width="17" height="17" viewBox="0 0 17 17" fill="none" xmlns="http://www.w3.org/2000/svg">
<path d="M0.852686 8.64731C0.771327 8.56595 0.771327 8.43404 0.852686 8.35268L8.35268 0.852686C8.39175 0.813616 8.44474 0.791667 8.5 0.791667C8.55525 0.791667 8.60824 0.813616 8.64731 0.852686L16.1473 8.35268C16.1864 8.39175 16.2083 8.44475 16.2083 8.5C16.2083 8.55525 16.1864 8.60824 16.1473 8.64731L8.64731 16.1473C8.56595 16.2287 8.43404 16.2287 8.35268 16.1473L0.852686 8.64731Z" fill="#FFB547" stroke="#604104" stroke-width="0.416667" stroke-linejoin="round"/>
<circle cx="10.5833" cy="10.3748" r="0.208333" fill="#E6A13B"/>
<circle cx="10.5833" cy="11.2083" r="0.208333" fill="#E6A13B"/>
<circle cx="9.75033" cy="12.0418" r="0.208333" fill="#E6A13B"/>
<circle cx="9.12533" cy="12.8748" r="0.208333" fill="#E6A13B"/>
<circle cx="9.54134" cy="9.74984" r="0.208333" fill="#E6A13B"/>
<circle cx="11.6253" cy="9.12484" r="0.208333" fill="#E6A13B"/>
<circle cx="10.4795" cy="9.229" r="0.3125" fill="#E6A13B"/>
<circle cx="9.64551" cy="11.104" r="0.3125" fill="#E6A13B"/>
<path d="M1 8.5L8.5 1L16 8.5L1 8.5Z" fill="#FFC368"/>
<path d="M8.39551 2.0415L5.58301 8.08317" stroke="#FFD596" stroke-width="0.416667" stroke-linecap="round"/>
<path d="M4.75 8.5L8.5 16L1 8.5L8.5 1L4.75 8.5Z" fill="#FFCB7C"/>
<path d="M2.66667 8.5L8.5 16L1 8.5L8.5 1L2.66667 8.5Z" fill="#FFEEC1"/>
<path d="M4.75 8.5L8.5 1L1 8.5L4.75 8.5Z" fill="#FFDBA5"/>
<path d="M2.66667 8.5L8.5 1L1 8.5L2.66667 8.5Z" fill="#FFF1CB"/>
<path d="M12.25 8.5L8.5 16L16 8.5L8.5 1L12.25 8.5Z" fill="#CA693F"/>
<path d="M12.25 8.5L8.5 1L16 8.5L12.25 8.5Z" fill="#DC794F"/>
<path d="M14.3333 8.5L8.5 16L16 8.5L8.5 1L14.3333 8.5Z" fill="#E39130"/>
<path d="M14.3333 8.5L8.5 1L16 8.5L14.3333 8.5Z" fill="#F0A347"/>
<path d="M4.95866 4.9585L2.04199 8.0835" stroke="white" stroke-width="0.416667" stroke-linecap="round"/>
</svg>
