<svg width="33" height="34" viewBox="0 0 33 34" fill="none" xmlns="http://www.w3.org/2000/svg">
<g filter="url(#filter0_d_2414_394)">
<path d="M20.9364 13.1811L18.1846 12.7801L16.953 10.2858V10.286C16.853 10.0835 16.6808 9.92617 16.4704 9.84457C16.26 9.76275 16.0266 9.76275 15.8163 9.84457C15.6059 9.92617 15.4337 10.0835 15.3337 10.286L14.1021 12.7803L11.3503 13.1811C11.1236 13.2108 10.917 13.3257 10.7719 13.5021C10.6269 13.6785 10.5541 13.9036 10.5687 14.1316C10.5834 14.3596 10.684 14.5735 10.8503 14.7302L12.842 16.6724L12.3708 19.4011C12.3355 19.6217 12.3829 19.8479 12.504 20.0357C12.6253 20.2235 12.8115 20.36 13.0273 20.4188C13.243 20.4776 13.4729 20.4544 13.6726 20.3539L16.133 19.0522L18.5933 20.3539C18.7235 20.4225 18.8681 20.4581 19.0153 20.4581C19.2028 20.4564 19.3851 20.3953 19.536 20.2837C19.6722 20.1849 19.7782 20.0496 19.8419 19.8937C19.9053 19.7377 19.9237 19.5671 19.8951 19.4011L19.4448 16.662L21.4366 14.7303C21.5986 14.5731 21.6958 14.3607 21.7088 14.1352C21.7218 13.9097 21.6497 13.6877 21.5068 13.5129C21.3636 13.3381 21.1602 13.2235 20.9366 13.1916L20.9364 13.1811ZM18.5204 16.1075C18.3982 16.2273 18.3426 16.3997 18.3719 16.5683L18.8405 19.302L16.3853 18.0003H16.3855C16.2337 17.9208 16.0529 17.9208 15.9011 18.0003L13.4458 19.302L13.9144 16.5683H13.9147C13.944 16.3997 13.8884 16.2273 13.7661 16.1075L11.7795 14.1704L14.5237 13.772H14.5239C14.6941 13.7474 14.8412 13.6402 14.917 13.4856L16.1432 10.9992L17.3694 13.4856C17.4452 13.6402 17.5924 13.7474 17.7625 13.772L20.5067 14.1704L18.5204 16.1075Z" fill="white"/>
<path d="M28.9258 0.260364C28.8335 0.100199 28.6629 0.00116848 28.4781 8.03708e-06H19.1053C18.9214 0.00210017 18.7519 0.101127 18.6601 0.260364L16.6919 3.50181L14.3199 0.216208C14.2222 0.0806858 14.0653 0.00025193 13.8982 1.98417e-05H4.52539C4.33849 -0.0016074 4.16507 0.0969553 4.07093 0.258281C3.97678 0.419838 3.97632 0.619292 4.06977 0.781087L9.11811 9.86765C7.66803 11.7222 6.96879 14.0547 7.15988 16.4012C7.35072 18.7477 8.41774 20.9363 10.1486 22.5319C11.8795 24.1275 14.1476 25.0134 16.5019 25.0134C18.8562 25.0134 21.1242 24.1275 22.8552 22.5319C24.5861 20.9361 25.6531 18.7475 25.844 16.4012C26.035 14.0548 25.3358 11.7223 23.8857 9.86765L28.9341 0.781087C29.0247 0.618595 29.0217 0.420076 28.9262 0.260376L28.9258 0.260364ZM5.41047 1.04143H13.6377L16.1111 4.46765L14.9394 6.37869C13.0065 6.70785 11.2254 7.63465 9.84693 9.0292L5.41047 1.04143ZM16.5019 23.9527C14.2924 23.9527 12.1733 23.075 10.6107 21.5126C9.04831 19.95 8.17053 17.8309 8.17053 15.6214C8.17053 13.4118 9.04831 11.2927 10.6107 9.73011C12.1733 8.16774 14.2924 7.28997 16.5019 7.28997C18.7115 7.28997 20.8305 8.16774 22.3932 9.73011C23.9555 11.2927 24.8333 13.4118 24.8333 15.6214C24.8333 17.8309 23.9555 19.95 22.3932 21.5126C20.8305 23.075 18.7115 23.9527 16.5019 23.9527ZM23.1563 9.02944C21.3994 7.2495 19.0025 6.24807 16.5019 6.24872H16.2416L19.3998 1.04161H27.5931L23.1563 9.02944Z" fill="white"/>
</g>
<defs>
<filter id="filter0_d_2414_394" x="0" y="0" width="33" height="33.0137" filterUnits="userSpaceOnUse" color-interpolation-filters="sRGB">
<feFlood flood-opacity="0" result="BackgroundImageFix"/>
<feColorMatrix in="SourceAlpha" type="matrix" values="0 0 0 0 0 0 0 0 0 0 0 0 0 0 0 0 0 0 127 0" result="hardAlpha"/>
<feOffset dy="4"/>
<feGaussianBlur stdDeviation="2"/>
<feComposite in2="hardAlpha" operator="out"/>
<feColorMatrix type="matrix" values="0 0 0 0 0 0 0 0 0 0 0 0 0 0 0 0 0 0 0.25 0"/>
<feBlend mode="normal" in2="BackgroundImageFix" result="effect1_dropShadow_2414_394"/>
<feBlend mode="normal" in="SourceGraphic" in2="effect1_dropShadow_2414_394" result="shape"/>
</filter>
</defs>
</svg>
