<svg width="10" height="12" viewBox="0 0 10 12" fill="none" xmlns="http://www.w3.org/2000/svg">
<g fill="currentColor" class="nc-icon-wrapper">
<path  clip-rule="evenodd" d="M1.83896 1.84509C2.58927 1.09033 3.60648 0.666676 4.66673 0.666676C5.72698 0.666676 6.74419 1.09033 7.4945 1.84509C8.24487 2.5999 8.66678 3.62405 8.66678 4.69236C8.66678 6.53459 7.64547 8.20168 6.58125 9.43279C6.05315 10.0437 5.52417 10.536 5.1272 10.8754C4.93853 11.0367 4.78023 11.163 4.66673 11.2507C4.55323 11.163 4.39492 11.0367 4.20626 10.8754C3.80928 10.536 3.28031 10.0437 2.7522 9.43279C1.68799 8.20168 0.666675 6.53459 0.666675 4.69236C0.666675 3.62405 1.08858 2.5999 1.83896 1.84509ZM4.47459 11.9392C4.47473 11.9393 4.47483 11.9394 4.66673 11.6668C4.85863 11.9394 4.85873 11.9393 4.85886 11.9392C4.74376 12.0203 4.58969 12.0203 4.47459 11.9392ZM4.47459 11.9392L4.66673 11.6668L4.85886 11.9392L4.86006 11.9384L4.8631 11.9362L4.8737 11.9286C4.8828 11.9221 4.8959 11.9126 4.9127 11.9003C4.9463 11.8756 4.9948 11.8394 5.0561 11.7923C5.17864 11.6981 5.35244 11.56 5.56044 11.3821C5.97598 11.0268 6.53035 10.5111 7.08559 9.86876C8.18808 8.59341 9.33346 6.77326 9.33346 4.69236C9.33346 3.44851 8.84225 2.2552 7.9673 1.37505C7.09226 0.494853 5.90504 0 4.66673 0C3.42841 0 2.2412 0.494853 1.36615 1.37505C0.491207 2.2552 0 3.44851 0 4.69236C0 6.77326 1.14538 8.59341 2.24786 9.86876C2.8031 10.5111 3.35748 11.0268 3.77302 11.3821C3.98102 11.56 4.15482 11.6981 4.27736 11.7923C4.33866 11.8394 4.38716 11.8756 4.42076 11.9003C4.43756 11.9126 4.45066 11.9221 4.45976 11.9286L4.47036 11.9362L4.47339 11.9384L4.47459 11.9392ZM3.33338 4.66673C3.33338 3.93035 3.93035 3.33338 4.66673 3.33338C5.4031 3.33338 6.00008 3.93035 6.00008 4.66673C6.00008 5.4031 5.4031 6.00008 4.66673 6.00008C3.93035 6.00008 3.33338 5.4031 3.33338 4.66673ZM4.66673 2.6667C3.56215 2.6667 2.6667 3.56215 2.6667 4.66673C2.6667 5.77131 3.56215 6.66676 4.66673 6.66676C5.77131 6.66676 6.66675 5.77131 6.66675 4.66673C6.66675 3.56215 5.77131 2.6667 4.66673 2.6667Z" fill="currentColor" />
</g>
</svg>
