<svg width="11" height="13" viewBox="0 0 11 13" fill="none" xmlns="http://www.w3.org/2000/svg">
<path fill-rule="evenodd" clip-rule="evenodd" d="M1.9922 1.99885C2.80504 1.18119 3.90702 0.722232 5.05562 0.722232C6.20422 0.722232 7.3062 1.18119 8.11904 1.99885C8.93195 2.81656 9.38901 3.92605 9.38901 5.08339C9.38901 7.07914 8.28259 8.88515 7.12969 10.2189C6.55758 10.8807 5.98452 11.414 5.55447 11.7817C5.35008 11.9564 5.17858 12.0933 5.05562 12.1883C4.93266 12.0933 4.76117 11.9564 4.55678 11.7817C4.12672 11.414 3.55367 10.8807 2.98155 10.2189C1.82865 8.88515 0.722232 7.07914 0.722232 5.08339C0.722232 3.92605 1.1793 2.81656 1.9922 1.99885V1.99885ZM4.84747 12.9342C4.84762 12.9342 4.84773 12.9343 5.05562 12.6391C5.26352 12.9343 5.26363 12.9342 5.26377 12.9342C5.13908 13.0219 4.97217 13.0219 4.84747 12.9342ZM4.84747 12.9342L5.05562 12.6391L5.26377 12.9342L5.26507 12.9332L5.26836 12.9309L5.27984 12.9227C5.2897 12.9156 5.30389 12.9053 5.32209 12.892C5.35849 12.8652 5.41103 12.826 5.47744 12.775C5.61019 12.6729 5.79847 12.5233 6.02381 12.3306C6.47398 11.9457 7.07455 11.387 7.67606 10.6912C8.87041 9.30953 10.1112 7.33769 10.1112 5.08339C10.1112 3.73589 9.5791 2.44313 8.63125 1.48964C7.68328 0.536091 6.39713 0 5.05562 0C3.71411 0 2.42796 0.536091 1.48 1.48964C0.53214 2.44313 0 3.73589 0 5.08339C0 7.33769 1.24083 9.30953 2.43518 10.6912C3.0367 11.387 3.63727 11.9457 4.08743 12.3306C4.31277 12.5233 4.50106 12.6729 4.6338 12.775C4.70021 12.826 4.75275 12.8652 4.78915 12.892C4.80736 12.9053 4.82155 12.9156 4.83141 12.9227L4.84289 12.9309L4.84618 12.9332L4.84747 12.9342ZM3.61116 5.05562C3.61116 4.25788 4.25788 3.61116 5.05562 3.61116C5.85336 3.61116 6.50009 4.25788 6.50009 5.05562C6.50009 5.85336 5.85336 6.50009 5.05562 6.50009C4.25788 6.50009 3.61116 5.85336 3.61116 5.05562ZM5.05562 2.88893C3.85899 2.88893 2.88893 3.85899 2.88893 5.05562C2.88893 6.25225 3.85899 7.22232 5.05562 7.22232C6.25225 7.22232 7.22232 6.25225 7.22232 5.05562C7.22232 3.85899 6.25225 2.88893 5.05562 2.88893Z" fill="#636A74"/>
</svg>
