<svg
  width="19"
  height="20"
  viewBox="0 0 19 21"
  fill="none"
  xmlns="http://www.w3.org/2000/svg"
>
<path
    d="M12 7H4C3.44772 7 3 7.44772 3 8C3 8.55228 3.44772 9 4 9H12C12.5523 9 13 8.55228 13 8C13 7.44772 12.5523 7 12 7Z"
    fill="currentColor"
  />
<path
    d="M12 7.5H4C3.72386 7.5 3.5 7.72386 3.5 8C3.5 8.27614 3.72386 8.5 4 8.5H12C12.2761 8.5 12.5 8.27614 12.5 8C12.5 7.72386 12.2761 7.5 12 7.5Z"
    stroke="currentColor"
  />
<path
    d="M12 4H4C3.44772 4 3 4.44772 3 5C3 5.55228 3.44772 6 4 6H12C12.5523 6 13 5.55228 13 5C13 4.44772 12.5523 4 12 4Z"
    fill="currentColor"
  />
<path
    d="M12 4.5H4C3.72386 4.5 3.5 4.72386 3.5 5C3.5 5.27614 3.72386 5.5 4 5.5H12C12.2761 5.5 12.5 5.27614 12.5 5C12.5 4.72386 12.2761 4.5 12 4.5Z"
    stroke="currentColor"
  />
<path
    d="M12 10H4C3.44772 10 3 10.4477 3 11C3 11.5523 3.44772 12 4 12H12C12.5523 12 13 11.5523 13 11C13 10.4477 12.5523 10 12 10Z"
    fill="currentColor"
  />
<path
    d="M12 10.5H4C3.72386 10.5 3.5 10.7239 3.5 11C3.5 11.2761 3.72386 11.5 4 11.5H12C12.2761 11.5 12.5 11.2761 12.5 11C12.5 10.7239 12.2761 10.5 12 10.5Z"
    stroke="currentColor"
  />
<path
    d="M2 19.0869L7 19.0059C7.13743 18.9953 7.27558 19.0131 7.40578 19.0584C7.53598 19.1037 7.65542 19.1753 7.75659 19.269C7.85776 19.3626 7.93849 19.4761 7.9937 19.6024C8.0489 19.7287 8.0774 19.8651 8.0774 20.0029C8.0774 20.1408 8.0489 20.2771 7.9937 20.4034C7.93849 20.5297 7.85776 20.6433 7.75659 20.7369C7.65542 20.8305 7.53598 20.9022 7.40578 20.9475C7.27558 20.9927 7.13743 21.0106 7 20.9999H2C1.73478 20.9999 1.48043 20.8946 1.29289 20.707C1.10536 20.5195 1 20.2651 1 19.9999C1.00181 19.8731 1.02959 19.7479 1.08162 19.6322C1.13365 19.5165 1.20883 19.4127 1.30253 19.3271C1.39622 19.2416 1.50644 19.1761 1.6264 19.1348C1.74635 19.0935 1.8735 19.0772 2 19.0869V19.0869Z"
    fill="currentColor"
  />
<path
    d="M16 10V5C16 4.44772 15.5523 4 15 4C14.4477 4 14 4.44772 14 5V10C14 10.5523 14.4477 11 15 11C15.5523 11 16 10.5523 16 10Z"
    fill="currentColor"
  />
<path
    d="M5.071 21H2C1.46957 21 0.960859 20.7893 0.585786 20.4142C0.210714 20.0391 0 19.5304 0 19V2C0 1.46957 0.210714 0.960859 0.585786 0.585786C0.960859 0.210714 1.46957 0 2 0L14 0C14.5304 0 15.0391 0.210714 15.4142 0.585786C15.7893 0.960859 16 1.46957 16 2V6.5L13.994 9.158V3.314C13.994 2.667 14 2.5 13.667 2.165C13.1324 1.98944 12.5 2 12.007 2H12L2.734 2.042C2.034 2.042 1.734 2.137 1.734 3.042V18.042C1.734 18.969 2.08 19.042 2.498 19.042H2.614H2.734L6.559 19.025L5.071 21Z"
    fill="currentColor"
  />
<path
    d="M9.68601 21.0007C9.56493 21.0068 9.44431 20.9817 9.33573 20.9278C9.22716 20.8739 9.13428 20.7929 9.06601 20.6927C8.97034 20.5672 8.90798 20.4194 8.88472 20.2633C8.86147 20.1072 8.87808 19.9477 8.93301 19.7997C8.94301 19.7557 8.95301 19.7127 8.96201 19.6697C9.18341 18.8486 9.46896 18.0461 9.81601 17.2697C9.87495 17.183 9.94191 17.1019 10.016 17.0277L15.471 11.9177C15.6144 11.7716 15.8084 11.6861 16.013 11.6787C16.2214 11.6869 16.4193 11.7725 16.568 11.9187C17.162 12.4447 18.468 13.7617 18.526 13.8187C18.5926 13.8713 18.6478 13.9369 18.6882 14.0115C18.7286 14.0861 18.7534 14.1682 18.761 14.2527C18.7549 14.4126 18.714 14.5693 18.6411 14.7118C18.5682 14.8543 18.4651 14.9792 18.339 15.0777L13.245 19.9447C13.0674 20.0795 12.8718 20.1889 12.664 20.2697C11.8184 20.5882 10.9445 20.8256 10.054 20.9787C10.004 20.9787 9.95401 20.9847 9.90001 20.9887C9.82901 20.9947 9.75801 21.0007 9.68601 21.0007ZM14.486 14.7697L10.845 18.3217L10.226 19.6787L11.815 19.2567L15.453 15.7027L14.484 14.7697H14.486ZM15.978 13.2417L15.278 13.9247L16.308 14.9127L17.008 14.2297L15.978 13.2417Z"
    fill="currentColor"
    stroke="currentColor"
    stroke-width="0.3"
  />
</svg>
