<svg width="18" height="18" viewBox="0 0 18 18" fill="none" xmlns="http://www.w3.org/2000/svg">
<path d="M9 1.5C7.51664 1.5 6.0666 1.93987 4.83323 2.76398C3.59986 3.58809 2.63856 4.75943 2.07091 6.12987C1.50325 7.50032 1.35472 9.00832 1.64411 10.4632C1.9335 11.918 2.64781 13.2544 3.6967 14.3033C4.7456 15.3522 6.08197 16.0665 7.53683 16.3559C8.99168 16.6453 10.4997 16.4968 11.8701 15.9291C13.2406 15.3614 14.4119 14.4001 15.236 13.1668C16.0601 11.9334 16.5 10.4834 16.5 9C16.5 8.01509 16.306 7.03982 15.9291 6.12987C15.5522 5.21993 14.9997 4.39314 14.3033 3.6967C13.6069 3.00026 12.7801 2.44781 11.8701 2.0709C10.9602 1.69399 9.98492 1.5 9 1.5ZM9 15C7.81332 15 6.65328 14.6481 5.66658 13.9888C4.67989 13.3295 3.91085 12.3925 3.45673 11.2961C3.0026 10.1997 2.88378 8.99334 3.11529 7.82946C3.3468 6.66557 3.91825 5.59647 4.75736 4.75736C5.59648 3.91824 6.66558 3.3468 7.82946 3.11529C8.99335 2.88378 10.1997 3.0026 11.2961 3.45672C12.3925 3.91085 13.3295 4.67988 13.9888 5.66658C14.6481 6.65327 15 7.81331 15 9C15 10.5913 14.3679 12.1174 13.2426 13.2426C12.1174 14.3679 10.5913 15 9 15Z" fill="#498BEA"/>
<path d="M9.25518 5.58741C9.0714 5.41806 8.84192 5.30644 8.59523 5.26644C8.34855 5.22644 8.09555 5.25981 7.86768 5.36241C7.64647 5.4519 7.45696 5.6053 7.32337 5.80302C7.18977 6.00073 7.11816 6.23379 7.11768 6.47241V11.5274C7.11816 11.766 7.18977 11.9991 7.32337 12.1968C7.45696 12.3945 7.64647 12.5479 7.86768 12.6374C8.03026 12.7112 8.20665 12.7495 8.38518 12.7499C8.70686 12.7485 9.01669 12.6283 9.25518 12.4124L12.0002 9.88491C12.1229 9.77249 12.221 9.63575 12.2881 9.48339C12.3551 9.33103 12.3898 9.16638 12.3898 8.99991C12.3898 8.83344 12.3551 8.6688 12.2881 8.51644C12.221 8.36408 12.1229 8.22734 12.0002 8.11491L9.25518 5.58741ZM8.62518 10.9499V7.04991L10.7327 8.99991L8.62518 10.9499Z" fill="#498BEA"/>
</svg>
