<svg width="310" height="167" viewBox="0 0 310 167" fill="none" xmlns="http://www.w3.org/2000/svg">
<path d="M51.344 31.96C50.736 30.84 49.856 29.992 48.704 29.416C47.584 28.808 46.256 28.504 44.72 28.504C42.064 28.504 39.936 29.384 38.336 31.144C36.736 32.872 35.936 35.192 35.936 38.104C35.936 41.208 36.768 43.64 38.432 45.4C40.128 47.128 42.448 47.992 45.392 47.992C47.408 47.992 49.104 47.48 50.48 46.456C51.888 45.432 52.912 43.96 53.552 42.04H43.136V35.992H60.992V43.624C60.384 45.672 59.344 47.576 57.872 49.336C56.432 51.096 54.592 52.52 52.352 53.608C50.112 54.696 47.584 55.24 44.768 55.24C41.44 55.24 38.464 54.52 35.84 53.08C33.248 51.608 31.216 49.576 29.744 46.984C28.304 44.392 27.584 41.432 27.584 38.104C27.584 34.776 28.304 31.816 29.744 29.224C31.216 26.6 33.248 24.568 35.84 23.128C38.432 21.656 41.392 20.92 44.72 20.92C48.752 20.92 52.144 21.896 54.896 23.848C57.68 25.8 59.52 28.504 60.416 31.96H51.344ZM90.7865 41.176C90.7865 41.944 90.7385 42.744 90.6425 43.576H72.0665C72.1945 45.24 72.7225 46.52 73.6505 47.416C74.6105 48.28 75.7785 48.712 77.1545 48.712C79.2025 48.712 80.6265 47.848 81.4265 46.12H90.1625C89.7145 47.88 88.8985 49.464 87.7145 50.872C86.5625 52.28 85.1065 53.384 83.3465 54.184C81.5865 54.984 79.6185 55.384 77.4425 55.384C74.8185 55.384 72.4825 54.824 70.4345 53.704C68.3865 52.584 66.7865 50.984 65.6345 48.904C64.4825 46.824 63.9065 44.392 63.9065 41.608C63.9065 38.824 64.4665 36.392 65.5865 34.312C66.7385 32.232 68.3385 30.632 70.3865 29.512C72.4345 28.392 74.7865 27.832 77.4425 27.832C80.0345 27.832 82.3385 28.376 84.3545 29.464C86.3705 30.552 87.9385 32.104 89.0585 34.12C90.2105 36.136 90.7865 38.488 90.7865 41.176ZM82.3865 39.016C82.3865 37.608 81.9065 36.488 80.9465 35.656C79.9865 34.824 78.7865 34.408 77.3465 34.408C75.9705 34.408 74.8025 34.808 73.8425 35.608C72.9145 36.408 72.3385 37.544 72.1145 39.016H82.3865ZM129.293 27.928C132.621 27.928 135.261 28.936 137.213 30.952C139.197 32.968 140.189 35.768 140.189 39.352V55H132.029V40.456C132.029 38.728 131.565 37.4 130.637 36.472C129.741 35.512 128.493 35.032 126.893 35.032C125.293 35.032 124.029 35.512 123.101 36.472C122.205 37.4 121.757 38.728 121.757 40.456V55H113.597V40.456C113.597 38.728 113.133 37.4 112.205 36.472C111.309 35.512 110.061 35.032 108.461 35.032C106.861 35.032 105.597 35.512 104.669 36.472C103.773 37.4 103.325 38.728 103.325 40.456V55H95.1166V28.216H103.325V31.576C104.157 30.456 105.245 29.576 106.589 28.936C107.933 28.264 109.453 27.928 111.149 27.928C113.165 27.928 114.957 28.36 116.525 29.224C118.125 30.088 119.373 31.32 120.269 32.92C121.197 31.448 122.461 30.248 124.061 29.32C125.661 28.392 127.405 27.928 129.293 27.928ZM150.057 25.432C148.617 25.432 147.433 25.016 146.505 24.184C145.609 23.32 145.161 22.264 145.161 21.016C145.161 19.736 145.609 18.68 146.505 17.848C147.433 16.984 148.617 16.552 150.057 16.552C151.465 16.552 152.617 16.984 153.513 17.848C154.441 18.68 154.905 19.736 154.905 21.016C154.905 22.264 154.441 23.32 153.513 24.184C152.617 25.016 151.465 25.432 150.057 25.432ZM154.137 28.216V55H145.929V28.216H154.137ZM176.405 27.928C179.541 27.928 182.037 28.952 183.893 31C185.781 33.016 186.725 35.8 186.725 39.352V55H178.565V40.456C178.565 38.664 178.101 37.272 177.173 36.28C176.245 35.288 174.997 34.792 173.429 34.792C171.861 34.792 170.613 35.288 169.685 36.28C168.757 37.272 168.293 38.664 168.293 40.456V55H160.085V28.216H168.293V31.768C169.125 30.584 170.245 29.656 171.653 28.984C173.061 28.28 174.645 27.928 176.405 27.928ZM196.557 25.432C195.117 25.432 193.933 25.016 193.005 24.184C192.109 23.32 191.661 22.264 191.661 21.016C191.661 19.736 192.109 18.68 193.005 17.848C193.933 16.984 195.117 16.552 196.557 16.552C197.965 16.552 199.117 16.984 200.013 17.848C200.941 18.68 201.405 19.736 201.405 21.016C201.405 22.264 200.941 23.32 200.013 24.184C199.117 25.016 197.965 25.432 196.557 25.432ZM200.637 28.216V55H192.429V28.216H200.637Z" fill="#F8AE20"/>
<path d="M51.344 29.96C50.736 28.84 49.856 27.992 48.704 27.416C47.584 26.808 46.256 26.504 44.72 26.504C42.064 26.504 39.936 27.384 38.336 29.144C36.736 30.872 35.936 33.192 35.936 36.104C35.936 39.208 36.768 41.64 38.432 43.4C40.128 45.128 42.448 45.992 45.392 45.992C47.408 45.992 49.104 45.48 50.48 44.456C51.888 43.432 52.912 41.96 53.552 40.04H43.136V33.992H60.992V41.624C60.384 43.672 59.344 45.576 57.872 47.336C56.432 49.096 54.592 50.52 52.352 51.608C50.112 52.696 47.584 53.24 44.768 53.24C41.44 53.24 38.464 52.52 35.84 51.08C33.248 49.608 31.216 47.576 29.744 44.984C28.304 42.392 27.584 39.432 27.584 36.104C27.584 32.776 28.304 29.816 29.744 27.224C31.216 24.6 33.248 22.568 35.84 21.128C38.432 19.656 41.392 18.92 44.72 18.92C48.752 18.92 52.144 19.896 54.896 21.848C57.68 23.8 59.52 26.504 60.416 29.96H51.344ZM90.7865 39.176C90.7865 39.944 90.7385 40.744 90.6425 41.576H72.0665C72.1945 43.24 72.7225 44.52 73.6505 45.416C74.6105 46.28 75.7785 46.712 77.1545 46.712C79.2025 46.712 80.6265 45.848 81.4265 44.12H90.1625C89.7145 45.88 88.8985 47.464 87.7145 48.872C86.5625 50.28 85.1065 51.384 83.3465 52.184C81.5865 52.984 79.6185 53.384 77.4425 53.384C74.8185 53.384 72.4825 52.824 70.4345 51.704C68.3865 50.584 66.7865 48.984 65.6345 46.904C64.4825 44.824 63.9065 42.392 63.9065 39.608C63.9065 36.824 64.4665 34.392 65.5865 32.312C66.7385 30.232 68.3385 28.632 70.3865 27.512C72.4345 26.392 74.7865 25.832 77.4425 25.832C80.0345 25.832 82.3385 26.376 84.3545 27.464C86.3705 28.552 87.9385 30.104 89.0585 32.12C90.2105 34.136 90.7865 36.488 90.7865 39.176ZM82.3865 37.016C82.3865 35.608 81.9065 34.488 80.9465 33.656C79.9865 32.824 78.7865 32.408 77.3465 32.408C75.9705 32.408 74.8025 32.808 73.8425 33.608C72.9145 34.408 72.3385 35.544 72.1145 37.016H82.3865ZM129.293 25.928C132.621 25.928 135.261 26.936 137.213 28.952C139.197 30.968 140.189 33.768 140.189 37.352V53H132.029V38.456C132.029 36.728 131.565 35.4 130.637 34.472C129.741 33.512 128.493 33.032 126.893 33.032C125.293 33.032 124.029 33.512 123.101 34.472C122.205 35.4 121.757 36.728 121.757 38.456V53H113.597V38.456C113.597 36.728 113.133 35.4 112.205 34.472C111.309 33.512 110.061 33.032 108.461 33.032C106.861 33.032 105.597 33.512 104.669 34.472C103.773 35.4 103.325 36.728 103.325 38.456V53H95.1166V26.216H103.325V29.576C104.157 28.456 105.245 27.576 106.589 26.936C107.933 26.264 109.453 25.928 111.149 25.928C113.165 25.928 114.957 26.36 116.525 27.224C118.125 28.088 119.373 29.32 120.269 30.92C121.197 29.448 122.461 28.248 124.061 27.32C125.661 26.392 127.405 25.928 129.293 25.928ZM150.057 23.432C148.617 23.432 147.433 23.016 146.505 22.184C145.609 21.32 145.161 20.264 145.161 19.016C145.161 17.736 145.609 16.68 146.505 15.848C147.433 14.984 148.617 14.552 150.057 14.552C151.465 14.552 152.617 14.984 153.513 15.848C154.441 16.68 154.905 17.736 154.905 19.016C154.905 20.264 154.441 21.32 153.513 22.184C152.617 23.016 151.465 23.432 150.057 23.432ZM154.137 26.216V53H145.929V26.216H154.137ZM176.405 25.928C179.541 25.928 182.037 26.952 183.893 29C185.781 31.016 186.725 33.8 186.725 37.352V53H178.565V38.456C178.565 36.664 178.101 35.272 177.173 34.28C176.245 33.288 174.997 32.792 173.429 32.792C171.861 32.792 170.613 33.288 169.685 34.28C168.757 35.272 168.293 36.664 168.293 38.456V53H160.085V26.216H168.293V29.768C169.125 28.584 170.245 27.656 171.653 26.984C173.061 26.28 174.645 25.928 176.405 25.928ZM196.557 23.432C195.117 23.432 193.933 23.016 193.005 22.184C192.109 21.32 191.661 20.264 191.661 19.016C191.661 17.736 192.109 16.68 193.005 15.848C193.933 14.984 195.117 14.552 196.557 14.552C197.965 14.552 199.117 14.984 200.013 15.848C200.941 16.68 201.405 17.736 201.405 19.016C201.405 20.264 200.941 21.32 200.013 22.184C199.117 23.016 197.965 23.432 196.557 23.432ZM200.637 26.216V53H192.429V26.216H200.637Z" fill="#FDF36D"/>
<path d="M55.952 166.52L47.312 154.904C44.752 155.416 42.256 155.672 39.824 155.672C33.488 155.672 27.664 154.2 22.352 151.256C17.104 148.312 12.912 144.216 9.776 138.968C6.704 133.656 5.168 127.704 5.168 121.112C5.168 114.52 6.704 108.6 9.776 103.352C12.912 98.104 17.104 94.008 22.352 91.064C27.664 88.12 33.488 86.648 39.824 86.648C46.16 86.648 51.952 88.12 57.2 91.064C62.512 94.008 66.672 98.104 69.68 103.352C72.752 108.6 74.288 114.52 74.288 121.112C74.288 126.872 73.104 132.152 70.736 136.952C68.432 141.688 65.2 145.624 61.04 148.76L75.824 166.52H55.952ZM21.968 121.112C21.968 127.064 23.568 131.832 26.768 135.416C30.032 138.936 34.384 140.696 39.824 140.696C45.2 140.696 49.488 138.904 52.688 135.32C55.952 131.736 57.584 127 57.584 121.112C57.584 115.16 55.952 110.424 52.688 106.904C49.488 103.32 45.2 101.528 39.824 101.528C34.384 101.528 30.032 103.288 26.768 106.808C23.568 110.328 21.968 115.096 21.968 121.112ZM136.504 101.432V155H120.088V147.704C118.424 150.072 116.152 151.992 113.272 153.464C110.456 154.872 107.32 155.576 103.864 155.576C99.7683 155.576 96.1523 154.68 93.0163 152.888C89.8803 151.032 87.4483 148.376 85.7203 144.92C83.9923 141.464 83.1283 137.4 83.1283 132.728V101.432H99.4483V130.52C99.4483 134.104 100.376 136.888 102.232 138.872C104.088 140.856 106.584 141.848 109.72 141.848C112.92 141.848 115.448 140.856 117.304 138.872C119.16 136.888 120.088 134.104 120.088 130.52V101.432H136.504ZM156.552 95.864C153.672 95.864 151.304 95.032 149.448 93.368C147.656 91.64 146.76 89.528 146.76 87.032C146.76 84.472 147.656 82.36 149.448 80.696C151.304 78.968 153.672 78.104 156.552 78.104C159.368 78.104 161.672 78.968 163.464 80.696C165.32 82.36 166.248 84.472 166.248 87.032C166.248 89.528 165.32 91.64 163.464 93.368C161.672 95.032 159.368 95.864 156.552 95.864ZM164.712 101.432V155H148.296V101.432H164.712ZM191.968 141.464H215.2V155H173.632V141.944L195.904 114.968H173.824V101.432H214.72V114.488L191.968 141.464Z" fill="#B08FFF"/>
<path d="M53.952 158.52L45.312 146.904C42.752 147.416 40.256 147.672 37.824 147.672C31.488 147.672 25.664 146.2 20.352 143.256C15.104 140.312 10.912 136.216 7.776 130.968C4.704 125.656 3.168 119.704 3.168 113.112C3.168 106.52 4.704 100.6 7.776 95.352C10.912 90.104 15.104 86.008 20.352 83.064C25.664 80.12 31.488 78.648 37.824 78.648C44.16 78.648 49.952 80.12 55.2 83.064C60.512 86.008 64.672 90.104 67.68 95.352C70.752 100.6 72.288 106.52 72.288 113.112C72.288 118.872 71.104 124.152 68.736 128.952C66.432 133.688 63.2 137.624 59.04 140.76L73.824 158.52H53.952ZM19.968 113.112C19.968 119.064 21.568 123.832 24.768 127.416C28.032 130.936 32.384 132.696 37.824 132.696C43.2 132.696 47.488 130.904 50.688 127.32C53.952 123.736 55.584 119 55.584 113.112C55.584 107.16 53.952 102.424 50.688 98.904C47.488 95.32 43.2 93.528 37.824 93.528C32.384 93.528 28.032 95.288 24.768 98.808C21.568 102.328 19.968 107.096 19.968 113.112ZM134.504 93.432V147H118.088V139.704C116.424 142.072 114.152 143.992 111.272 145.464C108.456 146.872 105.32 147.576 101.864 147.576C97.7683 147.576 94.1523 146.68 91.0163 144.888C87.8803 143.032 85.4483 140.376 83.7203 136.92C81.9923 133.464 81.1283 129.4 81.1283 124.728V93.432H97.4483V122.52C97.4483 126.104 98.3763 128.888 100.232 130.872C102.088 132.856 104.584 133.848 107.72 133.848C110.92 133.848 113.448 132.856 115.304 130.872C117.16 128.888 118.088 126.104 118.088 122.52V93.432H134.504ZM154.552 87.864C151.672 87.864 149.304 87.032 147.448 85.368C145.656 83.64 144.76 81.528 144.76 79.032C144.76 76.472 145.656 74.36 147.448 72.696C149.304 70.968 151.672 70.104 154.552 70.104C157.368 70.104 159.672 70.968 161.464 72.696C163.32 74.36 164.248 76.472 164.248 79.032C164.248 81.528 163.32 83.64 161.464 85.368C159.672 87.032 157.368 87.864 154.552 87.864ZM162.712 93.432V147H146.296V93.432H162.712ZM189.968 133.464H213.2V147H171.632V133.944L193.904 106.968H171.824V93.432H212.72V106.488L189.968 133.464Z" fill="white"/>
</svg>
