<svg width="26" height="26" viewBox="0 0 26 26" fill="none" xmlns="http://www.w3.org/2000/svg">
<path d="M4.75 2.5C3.50731 2.5 2.5 3.50731 2.5 4.75V9.25C2.5 9.66418 2.16418 10 1.75 10C1.33582 10 1 9.66418 1 9.25V4.75C1 2.67897 2.67897 1 4.75 1H9.25C9.66418 1 10 1.33582 10 1.75C10 2.16418 9.66418 2.5 9.25 2.5H4.75Z" fill="#D1D0D0" stroke="#D1D0D0" stroke-width="0.4"/>
<path d="M21.25 2.5C22.4927 2.5 23.5 3.50731 23.5 4.75V9.25C23.5 9.66418 23.8358 10 24.25 10C24.6642 10 25 9.66418 25 9.25V4.75C25 2.67897 23.321 1 21.25 1H16.75C16.3358 1 16 1.33582 16 1.75C16 2.16418 16.3358 2.5 16.75 2.5H21.25Z" fill="#D1D0D0" stroke="#D1D0D0" stroke-width="0.4"/>
<path d="M23.5 21.25C23.5 22.4927 22.4927 23.5 21.25 23.5H16.75C16.3358 23.5 16 23.8358 16 24.25C16 24.6642 16.3358 25 16.75 25H21.25C23.321 25 25 23.321 25 21.25V16.75C25 16.3358 24.6642 16 24.25 16C23.8358 16 23.5 16.3358 23.5 16.75V21.25Z" fill="#D1D0D0" stroke="#D1D0D0" stroke-width="0.4"/>
<path d="M4.75 23.5C3.50731 23.5 2.5 22.4927 2.5 21.25V16.75C2.5 16.3358 2.16418 16 1.75 16C1.33582 16 1 16.3358 1 16.75V21.25C1 23.321 2.67897 25 4.75 25H9.25C9.66418 25 10 24.6642 10 24.25C10 23.8358 9.66418 23.5 9.25 23.5H4.75Z" fill="#D1D0D0" stroke="#D1D0D0" stroke-width="0.4"/>
<path d="M9.75 8C9.33579 8 9 8.33579 9 8.75V17.75C9 18.1642 9.33579 18.5 9.75 18.5V18.5C10.1642 18.5 10.5 18.1642 10.5 17.75V8.75C10.5 8.33579 10.1642 8 9.75 8V8Z" fill="#D1D0D0" stroke="#D1D0D0" stroke-width="0.4"/>
<path d="M12.75 8C12.3358 8 12 8.33579 12 8.75V17.75C12 18.1642 12.3358 18.5 12.75 18.5V18.5C13.1642 18.5 13.5 18.1642 13.5 17.75V8.75C13.5 8.33579 13.1642 8 12.75 8V8Z" fill="#D1D0D0" stroke="#D1D0D0" stroke-width="0.4"/>
<path d="M15.75 8C15.3358 8 15 8.33579 15 8.75V17.75C15 18.1642 15.3358 18.5 15.75 18.5V18.5C16.1642 18.5 16.5 18.1642 16.5 17.75V8.75C16.5 8.33579 16.1642 8 15.75 8V8Z" fill="#D1D0D0" stroke="#D1D0D0" stroke-width="0.4"/>
<path d="M6.75 8C6.33579 8 6 8.33579 6 8.75V17.75C6 18.1642 6.33579 18.5 6.75 18.5V18.5C7.16421 18.5 7.5 18.1642 7.5 17.75V8.75C7.5 8.33579 7.16421 8 6.75 8V8Z" fill="#D1D0D0" stroke="#D1D0D0" stroke-width="0.4"/>
<path d="M18.75 18.5C18.3358 18.5 18 18.1642 18 17.75V8.75C18 8.33579 18.3358 8 18.75 8V8C19.1642 8 19.5 8.33579 19.5 8.75V17.75C19.5 18.1642 19.1642 18.5 18.75 18.5V18.5Z" fill="#D1D0D0" stroke="#D1D0D0" stroke-width="0.4"/>
</svg>
