<svg width="16" height="13" viewBox="0 0 16 13" fill="none" xmlns="http://www.w3.org/2000/svg">
<path d="M4.81817 12.4545H3.79999C3.39494 12.4545 3.00647 12.2936 2.72005 12.0072C2.43363 11.7208 2.27272 11.3323 2.27272 10.9273V9.90909M11.1818 12.4545H12.2C12.6051 12.4545 12.9935 12.2936 13.2799 12.0072C13.5664 11.7208 13.7273 11.3323 13.7273 10.9273V9.90909M13.7273 3.54545V2.52727C13.7273 2.12221 13.5664 1.73375 13.2799 1.44733C12.9935 1.16091 12.6051 1 12.2 1H11.1818M4.81817 1H3.79999C3.39494 1 3.00647 1.16091 2.72005 1.44733C2.43363 1.73375 2.27272 2.12221 2.27272 2.52727V3.54545" stroke="white" stroke-width="0.954545" stroke-miterlimit="10" stroke-linecap="round" stroke-linejoin="round"/>
<path d="M1 6.72656H15" stroke="white" stroke-width="0.954545" stroke-miterlimit="10" stroke-linecap="round"/>
</svg>
