<svg
  width="26"
  height="23"
  viewBox="0 0 29 29"
  fill="none"
  xmlns="http://www.w3.org/2000/svg"
>
<path
    d="M2.64036 5.24777C2.64036 3.95924 3.68483 2.91477 4.97336 2.91477H10.1094C10.7119 2.91477 11.2004 2.42627 11.2004 1.82377C11.2004 1.22127 10.7119 0.732773 10.1094 0.732773H4.97336C2.47984 0.732773 0.458359 2.75425 0.458359 5.24777V10.3838C0.458359 10.9863 0.94686 11.4748 1.54936 11.4748C2.15186 11.4748 2.64036 10.9863 2.64036 10.3838V5.24777Z"
    fill="#5F5C89"
    stroke="#5F5C89"
    stroke-width="0.47"
  />
<path
    d="M23.8054 2.91477C25.0939 2.91477 26.1384 3.95924 26.1384 5.24777V10.3838C26.1384 10.9863 26.6269 11.4748 27.2294 11.4748C27.8319 11.4748 28.3204 10.9863 28.3204 10.3838V5.24777C28.3204 2.75425 26.2989 0.732773 23.8054 0.732773H18.6694C18.0669 0.732773 17.5784 1.22127 17.5784 1.82377C17.5784 2.42627 18.0669 2.91477 18.6694 2.91477H23.8054Z"
    fill="#5F5C89"
    stroke="#5F5C89"
    stroke-width="0.47"
  />
<path
    d="M26.1384 24.0799C26.1384 25.3684 25.0939 26.4129 23.8054 26.4129H18.6694C18.0669 26.4129 17.5784 26.9014 17.5784 27.5039C17.5784 28.1064 18.0669 28.5949 18.6694 28.5949H23.8054C26.2989 28.5949 28.3204 26.5734 28.3204 24.0799V18.9439C28.3204 18.3414 27.8319 17.8529 27.2294 17.8529C26.6269 17.8529 26.1384 18.3414 26.1384 18.9439V24.0799Z"
    fill="#5F5C89"
    stroke="#5F5C89"
    stroke-width="0.47"
  />
<path
    d="M4.97336 26.4129C3.68483 26.4129 2.64036 25.3684 2.64036 24.0799V18.9439C2.64036 18.3414 2.15186 17.8529 1.54936 17.8529C0.94686 17.8529 0.458359 18.3414 0.458359 18.9439V24.0799C0.458359 26.5734 2.47984 28.5949 4.97336 28.5949H10.1094C10.7119 28.5949 11.2004 28.1064 11.2004 27.5039C11.2004 26.9014 10.7119 26.4129 10.1094 26.4129H4.97336Z"
    fill="#5F5C89"
    stroke="#5F5C89"
    stroke-width="0.47"
  />
<path
    d="M21.765 9.5V20.5C21.765 20.9059 22.0941 21.235 22.5 21.235C22.9059 21.235 23.235 20.9059 23.235 20.5V9.5C23.235 9.09407 22.9059 8.765 22.5 8.765C22.0941 8.765 21.765 9.09407 21.765 9.5Z"
    fill="#5F5C89"
    stroke="#5F5C89"
    stroke-width="0.47"
  />
<path
    d="M17.765 9.5V20.5C17.765 20.9059 18.0941 21.235 18.5 21.235C18.9059 21.235 19.235 20.9059 19.235 20.5V9.5C19.235 9.09407 18.9059 8.765 18.5 8.765C18.0941 8.765 17.765 9.09407 17.765 9.5Z"
    fill="#5F5C89"
    stroke="#5F5C89"
    stroke-width="0.47"
  />
<path
    d="M13.765 9.5V20.5C13.765 20.9059 14.0941 21.235 14.5 21.235C14.9059 21.235 15.235 20.9059 15.235 20.5V9.5C15.235 9.09407 14.9059 8.765 14.5 8.765C14.0941 8.765 13.765 9.09407 13.765 9.5Z"
    fill="#5F5C89"
    stroke="#5F5C89"
    stroke-width="0.47"
  />
<path
    d="M9.765 9.5V20.5C9.765 20.9059 10.0941 21.235 10.5 21.235C10.9059 21.235 11.235 20.9059 11.235 20.5V9.5C11.235 9.09407 10.9059 8.765 10.5 8.765C10.0941 8.765 9.765 9.09407 9.765 9.5Z"
    fill="#5F5C89"
    stroke="#5F5C89"
    stroke-width="0.47"
  />
<path
    d="M5.765 9.5V20.5C5.765 20.9059 6.09407 21.235 6.5 21.235C6.90593 21.235 7.235 20.9059 7.235 20.5V9.5C7.235 9.09407 6.90593 8.765 6.5 8.765C6.09407 8.765 5.765 9.09407 5.765 9.5Z"
    fill="#5F5C89"
    stroke="#5F5C89"
    stroke-width="0.47"
  />
</svg>
