<svg
  width="30"
  height="28"
  viewBox="0 0 30 26"
  fill="none"
  xmlns="http://www.w3.org/2000/svg"
>
<path
    fill-rule="evenodd"
    clip-rule="evenodd"
    d="M15.8621 14.609C16.128 14.609 16.383 14.7149 16.5706 14.9034L20.7542 19.1042C21.1871 19.5369 21.1871 20.2439 20.7542 20.6765C20.3213 21.1091 19.6139 21.1091 19.181 20.6765L14.9868 16.4848C14.7992 16.2972 14.6937 16.0428 14.6937 15.7774V15.4813C14.6937 15.4024 14.6631 15.3264 14.6082 15.2696C14.4961 15.1534 14.3134 15.1453 14.1866 15.2452C12.7317 16.3909 10.8084 16.9656 8.7705 16.6245C5.83528 16.1285 3.49132 13.6804 3.13234 10.7258C2.58331 6.26225 6.34208 2.50569 10.8083 3.0544C13.7646 3.41317 16.2141 5.75575 16.7104 8.68925C17.0517 10.7258 16.4768 12.648 15.3304 14.102C15.2304 14.2288 15.2386 14.4116 15.3548 14.5237C15.4116 14.5784 15.4874 14.609 15.5663 14.609H15.8621ZM5.19122 9.86052C5.19122 12.488 7.31345 14.609 9.94248 14.609C12.5715 14.609 14.6937 12.488 14.6937 9.86052C14.6937 7.23303 12.5715 5.11205 9.94248 5.11205C7.31345 5.11205 5.19122 7.23303 5.19122 9.86052Z"
    fill="currentColor"
  />
</svg>
