<svg width="24" height="24" viewBox="0 0 24 24" fill="none" xmlns="http://www.w3.org/2000/svg">
<g clip-path="url(#clip0_3115_905)">
<path d="M17.56 21.0002C17.4001 21.0008 17.2423 20.9631 17.1 20.8902L12 18.2202L6.90001 20.8902C6.7344 20.9773 6.54768 21.0162 6.36108 21.0024C6.17448 20.9887 5.99548 20.9228 5.84444 20.8124C5.69339 20.702 5.57635 20.5514 5.50662 20.3778C5.4369 20.2041 5.41728 20.0144 5.45001 19.8302L6.45001 14.2002L2.33001 10.2002C2.20146 10.0719 2.11028 9.91107 2.06623 9.7349C2.02219 9.55872 2.02695 9.37388 2.08001 9.2002C2.13797 9.02248 2.24458 8.86456 2.38776 8.74436C2.53093 8.62417 2.70493 8.54651 2.89001 8.5202L8.59001 7.6902L11.1 2.5602C11.1819 2.39113 11.3097 2.24855 11.4689 2.14878C11.6281 2.04901 11.8122 1.99609 12 1.99609C12.1879 1.99609 12.3719 2.04901 12.5311 2.14878C12.6903 2.24855 12.8181 2.39113 12.9 2.5602L15.44 7.6802L21.14 8.5102C21.3251 8.53651 21.4991 8.61417 21.6423 8.73436C21.7854 8.85456 21.892 9.01248 21.95 9.1902C22.0031 9.36388 22.0078 9.54872 21.9638 9.7249C21.9197 9.90107 21.8286 10.0619 21.7 10.1902L17.58 14.1902L18.58 19.8202C18.6157 20.0077 18.597 20.2015 18.5261 20.3787C18.4553 20.5559 18.3352 20.7091 18.18 20.8202C17.9989 20.9471 17.7809 21.0104 17.56 21.0002ZM12 16.1002C12.1603 16.0962 12.3189 16.1341 12.46 16.2102L16.23 18.2102L15.51 14.0002C15.4821 13.8395 15.4939 13.6743 15.5444 13.5192C15.595 13.364 15.6827 13.2236 15.8 13.1102L18.8 10.1802L14.6 9.5602C14.446 9.5292 14.3014 9.46233 14.1781 9.36504C14.0547 9.26775 13.956 9.14276 13.89 9.0002L12 5.2502L10.11 9.0002C10.0377 9.14391 9.9317 9.26803 9.80113 9.36204C9.67056 9.45605 9.51924 9.51717 9.36001 9.5402L5.16001 10.1602L8.16001 13.0902C8.27728 13.2036 8.36502 13.344 8.41557 13.4992C8.46612 13.6543 8.47794 13.8195 8.45001 13.9802L7.73001 18.1402L11.5 16.1402C11.6598 16.0808 11.8329 16.067 12 16.1002Z" fill="#C3C3C5"/>
</g>
<defs>
<clipPath id="clip0_3115_905">
<rect width="24" height="24" fill="white"/>
</clipPath>
</defs>
</svg>
