<svg width="21" height="21" viewBox="0 0 21 21" fill="none" xmlns="http://www.w3.org/2000/svg">
<g clip-path="url(#clip0_3115_895)">
<path d="M15.365 18.3747C15.2251 18.3753 15.0871 18.3422 14.9625 18.2784L10.5 15.9422L6.03754 18.2784C5.89263 18.3546 5.72925 18.3887 5.56598 18.3766C5.4027 18.3646 5.24608 18.307 5.11391 18.2104C4.98174 18.1137 4.87933 17.982 4.81832 17.8301C4.75731 17.6781 4.74015 17.5121 4.76879 17.3509L5.64379 12.4247L2.03879 8.92469C1.92631 8.81245 1.84652 8.6717 1.80799 8.51755C1.76945 8.36339 1.77361 8.20166 1.82004 8.04969C1.87075 7.89418 1.96404 7.756 2.08932 7.65083C2.2146 7.54566 2.36684 7.47771 2.52879 7.45469L7.51629 6.72844L9.71254 2.23969C9.78419 2.09175 9.89606 1.96699 10.0353 1.87969C10.1746 1.79239 10.3357 1.74609 10.5 1.74609C10.6644 1.74609 10.8255 1.79239 10.9647 1.87969C11.104 1.96699 11.2159 2.09175 11.2875 2.23969L13.51 6.71969L18.4975 7.44594C18.6595 7.46896 18.8117 7.53691 18.937 7.64208C19.0623 7.74725 19.1556 7.88543 19.2063 8.04094C19.2527 8.1929 19.2569 8.35464 19.2183 8.5088C19.1798 8.66295 19.1 8.8037 18.9875 8.91594L15.3825 12.4159L16.2575 17.3422C16.2888 17.5062 16.2724 17.6758 16.2104 17.8308C16.1484 17.9859 16.0433 18.1199 15.9075 18.2172C15.7491 18.3282 15.5583 18.3836 15.365 18.3747Z" fill="#4D8DD7"/>
</g>
<defs>
<clipPath id="clip0_3115_895">
<rect width="21" height="21" fill="white"/>
</clipPath>
</defs>
</svg>
