<svg width="20" height="20" viewBox="0 0 20 20" fill="none" xmlns="http://www.w3.org/2000/svg">
<circle cx="10" cy="10" r="9" fill="white" stroke="#6A5AE1" stroke-width="2"/>
<path d="M13.3077 7.00054C13.1346 7.00545 12.9703 7.07095 12.85 7.18303C11.2045 8.66655 9.70565 10.1302 8.10584 11.5913L6.08232 10.1359C5.94437 10.0367 5.76812 9.9907 5.59253 10.0082C5.41695 10.0258 5.25628 10.1054 5.14597 10.2295C5.03555 10.3536 4.98457 10.512 5.00408 10.6701C5.02359 10.828 5.11207 10.9726 5.25001 11.0718L7.74693 12.8688C7.87536 12.9613 8.03745 13.0076 8.20164 12.999C8.36594 12.9904 8.52083 12.9273 8.63649 12.822C10.4258 11.2089 12.035 9.61843 13.7968 8.03H13.7967C13.927 7.91687 14.0003 7.76101 14 7.59818C13.9998 7.43534 13.9258 7.27959 13.7952 7.16688C13.6645 7.05406 13.4886 6.994 13.3077 7.00047L13.3077 7.00054Z" fill="#6A5AE1"/>
</svg>
