<svg width="263" height="230" viewBox="-3 0 263 230" fill="none" xmlns="http://www.w3.org/2000/svg">
<path d="M225.774 230H262.776L253.78 202.285L262.776 174.571H225.774V230Z" fill="#F8C67C"/>
<path d="M36.9902 228.816H0L8.99552 201.102L0 173.387H36.9902V228.816Z" fill="#F8C67B"/>
<path d="M77.0127 182.469C77.0127 182.469 76.9287 182.39 76.7606 182.25L76.0135 181.62L74.7902 180.606L74.0104 179.962C73.7349 179.729 73.4501 179.467 73.1466 179.196L71.1249 177.385C70.3965 176.712 69.6354 175.951 68.7903 175.148C67.9452 174.345 67.1281 173.439 66.2269 172.505C65.3258 171.572 64.4106 170.512 63.4254 169.419C62.4402 168.326 61.5204 167.127 60.5072 165.903C59.9936 165.292 59.5313 164.629 59.0317 163.97C58.5321 163.312 58.0232 162.639 57.5236 161.944C57.024 161.248 56.5477 160.52 56.0481 159.791C55.796 159.422 55.5392 159.058 55.2917 158.685C55.0443 158.311 54.8248 157.919 54.568 157.536C54.1011 156.761 53.5781 155.986 53.0972 155.202L51.6965 152.727C51.2015 151.905 50.7626 151.027 50.2957 150.159C49.8288 149.29 49.3619 148.413 48.9416 147.493L47.6296 144.733C47.2281 143.799 46.8172 142.833 46.4063 141.866C43.0747 133.87 40.8352 125.462 39.748 116.868C39.6266 115.831 39.5053 114.801 39.3839 113.777C39.3045 112.75 39.2298 111.736 39.1504 110.728C39.071 109.719 39.043 108.729 39.001 107.744C38.959 106.759 38.9076 105.783 38.9263 104.821C38.945 103.86 38.9263 102.907 38.9263 101.969C38.9263 101.03 39.001 100.101 39.0337 99.1951C39.0524 98.7375 39.071 98.2846 39.0897 97.8363C39.0897 97.3694 39.1597 96.9445 39.1924 96.501C39.2671 95.6169 39.3387 94.75 39.4072 93.9002C39.4912 93.0458 39.608 92.21 39.7014 91.3929C39.7947 90.5758 39.8835 89.7634 40.0235 88.979C40.2943 87.4148 40.4905 85.8973 40.808 84.4732C41.1255 83.0491 41.3496 81.6717 41.6858 80.4157C42.0219 79.1597 42.2694 77.9318 42.6196 76.8252C42.9698 75.7186 43.2266 74.6727 43.5254 73.7249C43.8242 72.777 44.1184 71.9272 44.3752 71.1521C44.5059 70.7646 44.6227 70.4004 44.7441 70.0596C44.8655 69.7187 44.9869 69.4059 45.0989 69.1257C45.3184 68.5374 45.5051 68.0425 45.6546 67.6363L45.9954 66.7024C46.0701 66.497 46.1028 66.3849 46.1028 66.3849C46.1028 66.3849 46.0514 66.4877 45.9721 66.6931L45.6125 67.5989C45.4538 68.0051 45.2577 68.5001 45.0335 69.0791C44.9168 69.3732 44.7954 69.6907 44.6647 70.0129C44.534 70.3351 44.4219 70.7179 44.2865 71.1008L43.4134 73.6735C43.1099 74.6073 42.8204 75.6579 42.4795 76.7691C42.1387 77.8804 41.8632 79.1037 41.5457 80.3597C41.2282 81.6157 40.948 82.9931 40.6445 84.4219C40.341 85.8506 40.1216 87.3634 39.8461 88.9323C39.7014 89.7167 39.6267 90.5291 39.5193 91.3462C39.4119 92.1633 39.3045 93.0038 39.2158 93.8582C39.1271 94.7127 39.071 95.5858 38.9963 96.4683C38.959 96.9118 38.917 97.3554 38.8889 97.8037C38.8609 98.2519 38.8469 98.7095 38.8282 99.1624C38.7909 100.096 38.7395 101.03 38.7162 101.964C38.6928 102.898 38.7162 103.855 38.7162 104.821C38.7162 105.788 38.7582 106.764 38.7862 107.749C38.8142 108.734 38.8376 109.738 38.9309 110.747C39.0243 111.755 39.085 112.768 39.1644 113.8C39.2438 114.832 39.4072 115.855 39.5286 116.9C40.6064 125.517 42.851 133.948 46.2008 141.96C46.6164 142.926 47.0226 143.883 47.4288 144.831L48.7455 147.595C49.1658 148.529 49.6514 149.388 50.1089 150.266C50.5665 151.144 51.0054 152.012 51.5097 152.839L52.9431 155.314C53.41 156.117 53.9377 156.892 54.4232 157.648L55.1517 158.801C55.3945 159.175 55.6559 159.539 55.9081 159.908L57.3555 162.046C57.8598 162.742 58.3734 163.41 58.8683 164.073C59.3632 164.736 59.8395 165.394 60.3578 166.001C61.3757 167.229 62.3002 168.448 63.29 169.522C64.2799 170.596 65.1577 171.665 66.0915 172.599C67.0254 173.533 67.8424 174.466 68.6969 175.246C69.5514 176.026 70.3031 176.801 71.0315 177.473L73.0719 179.266C73.3801 179.532 73.6603 179.794 73.9404 180.027L74.7295 180.662L68.7903 176.933L76.7326 182.269C76.9193 182.404 77.0127 182.469 77.0127 182.469Z" fill="#E89E69"/>
<path d="M57.7805 164.194C61.7446 161.197 63.1874 155.668 62.3283 150.775C61.4692 145.882 58.663 141.54 55.4553 137.744C52.5184 141.479 50.7254 146.867 51.4071 151.564C52.0888 156.261 54.7642 160.146 57.7805 164.194Z" fill="#E89E69"/>
<path d="M57.8 164.199C58.4864 159.277 55.5915 154.347 51.5246 151.494C47.4578 148.641 42.4011 147.553 37.4471 147.138C38.0074 151.849 40.5614 156.943 44.3574 159.772C48.1535 162.602 52.7993 163.47 57.8 164.199Z" fill="#F8C67B"/>
<path d="M44.2495 138.234C48.0269 136.287 50.044 131.842 50.0346 127.593C50.0253 123.344 48.293 119.277 46.1499 115.616C43.1336 118.325 40.8364 122.62 40.7243 126.664C40.6122 130.707 42.3025 134.382 44.2542 138.234" fill="#E89E69"/>
<path d="M44.2824 138.239C45.5711 134.195 43.8529 129.624 40.8459 126.627C37.839 123.629 33.7348 121.981 29.6399 120.907C29.4251 124.955 30.8352 129.61 33.6227 132.556C36.4102 135.503 40.1969 136.899 44.3011 138.239" fill="#F8C67B"/>
<path d="M38.4917 112.161C41.9048 111.694 44.655 108.846 45.8036 105.596C46.9522 102.346 46.7374 98.7651 46.0791 95.38C43.0394 96.6313 40.1212 99.2881 38.9352 102.356C37.7493 105.423 38.0434 108.687 38.4917 112.161Z" fill="#E89E69"/>
<path d="M38.5013 112.17C40.5884 109.425 40.5184 105.466 39.0289 102.365C37.5394 99.2649 34.8547 96.879 32.0251 94.946C30.7598 97.9809 30.573 101.926 31.9037 104.933C33.2344 107.94 35.7511 110.037 38.5246 112.18" fill="#F8C67B"/>
<path d="M39.7862 87.947C42.8305 88.1851 45.7441 86.2241 47.3409 83.6234C48.9378 81.0227 49.4187 77.885 49.4888 74.8314C46.6219 75.3496 43.5963 77.1052 42.0181 79.5425C40.4399 81.9798 40.0664 84.856 39.8049 87.947" fill="#E89E69"/>
<path d="M39.7959 87.9565C42.1305 85.9721 42.7888 82.5263 42.0791 79.5521C41.3694 76.5778 39.4877 74.0238 37.3773 71.8199C35.715 74.2106 34.8185 77.591 35.4115 80.4439C36.0045 83.2967 37.7928 85.5799 39.7959 87.9519" fill="#F8C67B"/>
<path d="M44.4729 70.0736C44.4729 70.0736 41.1064 58.8396 52.5272 56.9999C52.5272 57.0186 55.5248 67.4075 44.4729 70.0736Z" fill="#F8C67B"/>
<path d="M179 182.469C179 182.469 179.084 182.39 179.252 182.25L179.999 181.62L181.222 180.606L182.002 179.962C182.278 179.729 182.563 179.467 182.866 179.196L184.888 177.385C185.616 176.712 186.377 175.951 187.222 175.148C188.067 174.345 188.885 173.439 189.786 172.505C190.687 171.572 191.602 170.512 192.587 169.419C193.572 168.327 194.492 167.127 195.505 165.903C196.019 165.292 196.481 164.629 196.981 163.97C197.48 163.312 197.989 162.64 198.489 161.944C198.989 161.248 199.465 160.52 199.964 159.791C200.217 159.423 200.473 159.058 200.721 158.685C200.968 158.311 201.188 157.919 201.445 157.536C201.912 156.761 202.434 155.986 202.915 155.202L204.316 152.727C204.811 151.905 205.25 151.027 205.717 150.159C206.184 149.29 206.651 148.413 207.071 147.493L208.383 144.733C208.785 143.8 209.195 142.833 209.606 141.866C212.938 133.87 215.177 125.462 216.265 116.868C216.386 115.831 216.507 114.801 216.629 113.777C216.708 112.75 216.783 111.736 216.862 110.728C216.942 109.719 216.97 108.729 217.012 107.744C217.054 106.759 217.105 105.783 217.086 104.821C217.068 103.86 217.086 102.907 217.086 101.969C217.086 101.03 217.012 100.101 216.979 99.1951C216.96 98.7375 216.942 98.2846 216.923 97.8364C216.923 97.3695 216.853 96.9446 216.82 96.501C216.745 95.617 216.674 94.7501 216.605 93.9003C216.521 93.0458 216.405 92.21 216.311 91.3929C216.218 90.5758 216.129 89.7634 215.989 88.979C215.718 87.4148 215.522 85.8973 215.205 84.4733C214.887 83.0492 214.663 81.6718 214.327 80.4158C213.991 79.1598 213.743 77.9318 213.393 76.8252C213.043 75.7186 212.786 74.6727 212.487 73.7249C212.188 72.777 211.894 71.9272 211.637 71.1522C211.507 70.7646 211.39 70.4004 211.269 70.0596C211.147 69.7187 211.026 69.4059 210.914 69.1257C210.694 68.5374 210.507 68.0425 210.358 67.6363L210.017 66.7024C209.942 66.497 209.91 66.3849 209.91 66.3849C209.91 66.3849 209.961 66.4877 210.041 66.6931L210.4 67.5989C210.559 68.0051 210.755 68.5001 210.979 69.0791C211.096 69.3732 211.217 69.6907 211.348 70.0129C211.479 70.3351 211.591 70.7179 211.726 71.1008L212.599 73.6735C212.903 74.6073 213.192 75.6579 213.533 76.7691C213.874 77.8804 214.149 79.1037 214.467 80.3597C214.784 81.6157 215.065 82.9931 215.368 84.4219C215.672 85.8507 215.891 87.3635 216.166 88.9323C216.311 89.7167 216.386 90.5291 216.493 91.3462C216.601 92.1633 216.708 93.0038 216.797 93.8582C216.885 94.7127 216.942 95.5858 217.016 96.4683C217.054 96.9119 217.096 97.3554 217.124 97.8037C217.152 98.2519 217.166 98.7095 217.184 99.1624C217.222 100.096 217.273 101.03 217.296 101.964C217.32 102.898 217.296 103.855 217.296 104.821C217.296 105.788 217.254 106.764 217.226 107.749C217.198 108.734 217.175 109.738 217.082 110.747C216.988 111.755 216.928 112.768 216.848 113.8C216.769 114.832 216.605 115.855 216.484 116.901C215.406 125.517 213.162 133.948 209.812 141.96C209.396 142.926 208.99 143.884 208.584 144.831L207.267 147.596C206.847 148.529 206.361 149.388 205.904 150.266C205.446 151.144 205.007 152.013 204.503 152.839L203.069 155.314C202.603 156.117 202.075 156.892 201.589 157.648L200.861 158.802C200.618 159.175 200.357 159.539 200.105 159.908L198.657 162.047C198.153 162.742 197.639 163.41 197.144 164.073C196.649 164.736 196.173 165.394 195.655 166.001C194.637 167.229 193.712 168.448 192.723 169.522C191.733 170.596 190.855 171.665 189.921 172.599C188.987 173.533 188.17 174.467 187.316 175.246C186.461 176.026 185.71 176.801 184.981 177.473L182.941 179.266C182.633 179.533 182.352 179.794 182.072 180.027L181.283 180.662L180.046 181.657L179.28 182.269C179.093 182.404 179 182.469 179 182.469Z" fill="#E89E69"/>
<path d="M198.232 164.194C194.268 161.197 192.825 155.668 193.684 150.775C194.543 145.882 197.349 141.54 200.557 137.744C203.494 141.479 205.287 146.867 204.605 151.564C203.923 156.261 201.248 160.146 198.232 164.194Z" fill="#E89E69"/>
<path d="M198.212 164.199C197.525 159.277 200.42 154.347 204.487 151.494C208.554 148.641 213.611 147.553 218.565 147.138C218.004 151.849 215.45 156.943 211.654 159.772C207.858 162.602 203.212 163.47 198.212 164.199Z" fill="#F8C67B"/>
<path d="M211.763 138.234C207.985 136.287 205.968 131.842 205.978 127.593C205.987 123.344 207.719 119.277 209.862 115.617C212.879 118.325 215.176 122.62 215.288 126.664C215.4 130.707 213.71 134.382 211.758 138.234" fill="#E89E69"/>
<path d="M211.73 138.239C210.442 134.195 212.16 129.624 215.167 126.627C218.174 123.629 222.278 121.981 226.373 120.907C226.588 124.955 225.177 129.61 222.39 132.556C219.602 135.503 215.816 136.899 211.712 138.239" fill="#F8C67B"/>
<path d="M217.52 112.161C214.107 111.694 211.357 108.846 210.208 105.596C209.06 102.347 209.274 98.7654 209.933 95.3802C212.972 96.6316 215.89 99.2883 217.076 102.356C218.262 105.424 217.968 108.687 217.52 112.161Z" fill="#E89E69"/>
<path d="M217.51 112.17C215.423 109.425 215.493 105.466 216.982 102.365C218.472 99.265 221.157 96.879 223.986 94.946C225.251 97.9809 225.438 101.926 224.107 104.933C222.777 107.94 220.26 110.037 217.487 112.18" fill="#F8C67B"/>
<path d="M216.226 87.947C213.182 88.1851 210.268 86.2241 208.671 83.6234C207.074 81.0227 206.593 77.885 206.523 74.8314C209.39 75.3496 212.416 77.1052 213.994 79.5425C215.572 81.9798 215.946 84.856 216.207 87.947" fill="#E89E69"/>
<path d="M216.217 87.9565C213.882 85.9721 213.224 82.5263 213.934 79.5521C214.643 76.5778 216.525 74.0238 218.635 71.8199C220.298 74.2106 221.194 77.591 220.601 80.4439C220.008 83.2967 218.22 85.5799 216.217 87.9519" fill="#F8C67B"/>
<path d="M211.539 70.0736C211.539 70.0736 214.906 58.8396 203.485 56.9999C203.485 57.0186 200.487 67.4075 211.539 70.0736Z" fill="#F8C67B"/>
<path d="M235.164 166.642H28.3288C23.099 166.642 18.8594 170.882 18.8594 176.112V212.602C18.8594 217.832 23.099 222.072 28.3288 222.072H235.164C240.394 222.072 244.634 217.832 244.634 212.602V176.112C244.634 170.882 240.394 166.642 235.164 166.642Z" fill="#FFE55D"/>
<path d="M69.9891 200.906C73.8088 200.906 76.6252 198.23 76.6252 194.569C76.6252 190.908 73.8088 188.232 69.9891 188.232C66.1695 188.232 63.3531 190.926 63.3531 194.569C63.3531 198.213 66.1695 200.906 69.9891 200.906ZM69.9891 198.899C67.5072 198.899 65.659 197.086 65.659 194.569C65.659 192.052 67.5072 190.239 69.9891 190.239C72.4711 190.239 74.3193 192.052 74.3193 194.569C74.3193 197.086 72.4711 198.899 69.9891 198.899ZM85.7395 191.33V196.083C85.7395 197.966 84.701 198.917 83.1696 198.917C81.779 198.917 80.9693 198.107 80.9693 196.4V191.33H78.7691V196.699C78.7691 199.533 80.4061 200.853 82.8176 200.853C84.0321 200.853 85.1411 200.396 85.8451 199.533V200.73H87.9398V191.33H85.7395ZM92.9153 192.703V191.33H90.8207V200.73H93.0209V196.171C93.0209 194.252 94.0771 193.267 95.7493 193.267C95.9077 193.267 96.0661 193.284 96.2597 193.319V191.225C94.6931 191.225 93.549 191.718 92.9153 192.703ZM108.991 200.906C111.015 200.906 112.74 200.184 113.885 198.847L112.406 197.438C111.508 198.424 110.399 198.899 109.114 198.899C106.562 198.899 104.714 197.104 104.714 194.569C104.714 192.034 106.562 190.239 109.114 190.239C110.399 190.239 111.508 190.714 112.406 191.682L113.885 190.292C112.74 188.954 111.015 188.232 109.009 188.232C105.224 188.232 102.408 190.89 102.408 194.569C102.408 198.248 105.224 200.906 108.991 200.906ZM121.199 191.225C119.897 191.225 118.788 191.647 118.066 192.422V187.669H115.866V200.73H118.066V195.977C118.066 194.094 119.122 193.143 120.689 193.143C122.097 193.143 122.924 193.953 122.924 195.625V200.73H125.125V195.344C125.125 192.51 123.453 191.225 121.199 191.225ZM131.507 191.225C129.993 191.225 128.532 191.612 127.529 192.387L128.391 193.988C129.095 193.407 130.187 193.055 131.243 193.055C132.809 193.055 133.584 193.812 133.584 195.097V195.238H131.155C128.303 195.238 127.247 196.47 127.247 198.037C127.247 199.674 128.602 200.853 130.75 200.853C132.158 200.853 133.179 200.396 133.707 199.586V200.73H135.784V195.22C135.784 192.51 134.218 191.225 131.507 191.225ZM131.208 199.251C130.081 199.251 129.412 198.741 129.412 197.949C129.412 197.262 129.817 196.699 131.313 196.699H133.584V197.79C133.214 198.759 132.281 199.251 131.208 199.251ZM150.472 191.225C148.976 191.225 147.708 191.823 146.951 192.791C146.3 191.735 145.156 191.225 143.783 191.225C142.498 191.225 141.407 191.682 140.703 192.527V191.33H138.608V200.73H140.808V195.96C140.808 194.094 141.794 193.143 143.255 193.143C144.593 193.143 145.367 193.953 145.367 195.625V200.73H147.567V195.96C147.567 194.094 148.571 193.143 150.014 193.143C151.352 193.143 152.126 193.953 152.126 195.625V200.73H154.327V195.344C154.327 192.51 152.742 191.225 150.472 191.225ZM162.349 191.225C161.064 191.225 159.972 191.665 159.233 192.563V191.33H157.138V204.145H159.339V199.586C160.095 200.448 161.152 200.853 162.349 200.853C165.095 200.853 167.119 198.952 167.119 196.03C167.119 193.126 165.095 191.225 162.349 191.225ZM162.102 198.97C160.518 198.97 159.303 197.826 159.303 196.03C159.303 194.235 160.518 193.091 162.102 193.091C163.686 193.091 164.883 194.235 164.883 196.03C164.883 197.826 163.686 198.97 162.102 198.97ZM170.314 189.781C171.142 189.781 171.723 189.183 171.723 188.408C171.723 187.687 171.124 187.141 170.314 187.141C169.505 187.141 168.906 187.722 168.906 188.461C168.906 189.201 169.505 189.781 170.314 189.781ZM169.205 200.73H171.406V191.33H169.205V200.73ZM178.518 200.853C181.44 200.853 183.535 198.847 183.535 196.03C183.535 193.214 181.44 191.225 178.518 191.225C175.631 191.225 173.519 193.214 173.519 196.03C173.519 198.847 175.631 200.853 178.518 200.853ZM178.518 198.97C176.934 198.97 175.737 197.826 175.737 196.03C175.737 194.235 176.934 193.091 178.518 193.091C180.12 193.091 181.317 194.235 181.317 196.03C181.317 197.826 180.12 198.97 178.518 198.97ZM190.972 191.225C189.599 191.225 188.455 191.682 187.733 192.545V191.33H185.639V200.73H187.839V195.977C187.839 194.094 188.895 193.143 190.462 193.143C191.87 193.143 192.697 193.953 192.697 195.625V200.73H194.898V195.344C194.898 192.51 193.225 191.225 190.972 191.225ZM197.83 196.646H199.572L200.012 188.408H197.407L197.83 196.646ZM198.71 200.853C199.519 200.853 200.1 200.237 200.1 199.48C200.1 198.723 199.519 198.125 198.71 198.125C197.882 198.125 197.284 198.723 197.284 199.48C197.284 200.237 197.882 200.853 198.71 200.853Z" fill="#DE965B"/>
<g filter="url(#filter0_d_1882_54)">
<circle cx="128.143" cy="120.143" r="62.1429" fill="#F8C67B"/>
</g>
<defs>
<filter id="filter0_d_1882_54" x="17.4694" y="-3.86238e-05" width="221.347" height="221.347" filterUnits="userSpaceOnUse" color-interpolation-filters="sRGB">
<feFlood flood-opacity="0" result="BackgroundImageFix"/>
<feColorMatrix in="SourceAlpha" type="matrix" values="0 0 0 0 0 0 0 0 0 0 0 0 0 0 0 0 0 0 127 0" result="hardAlpha"/>
<feMorphology radius="1.18367" operator="dilate" in="SourceAlpha" result="effect1_dropShadow_1882_54"/>
<feOffset dy="-9.46939"/>
<feGaussianBlur stdDeviation="23.6735"/>
<feComposite in2="hardAlpha" operator="out"/>
<feColorMatrix type="matrix" values="0 0 0 0 0.95 0 0 0 0 0.797379 0 0 0 0 0.407708 0 0 0 0.8 0"/>
<feBlend mode="normal" in2="BackgroundImageFix" result="effect1_dropShadow_1882_54"/>
<feBlend mode="normal" in="SourceGraphic" in2="effect1_dropShadow_1882_54" result="shape"/>
</filter>
</defs>
</svg>
